<svg width="122" height="122" viewBox="0 0 122 122" fill="none" xmlns="http://www.w3.org/2000/svg">
<g clip-path="url(#clip0_269_73)">
<path d="M61 122C94.6894 122 122 94.6894 122 61C122 27.3106 94.6894 0 61 0C27.3106 0 0 27.3106 0 61C0 94.6894 27.3106 122 61 122Z" fill="#0575C9"/>
<path d="M36.2999 58.48C37.8599 58.24 32.7599 61.38 28.5399 64.78C23.7899 68.58 22.4999 70.06 23.0699 72.72C23.6399 75.38 27.3001 79.72 29.2301 79.67C31.2901 79.61 33.8199 77.76 33.8199 77.76L39.38 73.99C40.56 73.19 38.9 76.93 40.13 78.23C41.85 80.05 42.56 79.68 43.88 79.26C45.2 78.84 46.7701 78.22 50.4701 76.93C54.5101 75.52 56.66 74.61 57.61 74.52C58.56 74.43 58.7899 75.2 59.5499 76.24C59.5499 76.24 61.95 80.26 62.68 80.47C64.22 81.12 67.4799 79.97 72.3299 77.6C77.1899 75.23 78.2899 74.59 78.2899 74.59L82.0799 72.19C81.3299 73.25 80.7199 74.41 80.2799 75.64C79.7399 77.45 79.1199 78.71 79.4999 80.12C79.8399 81.43 80.9599 82.39 82.3099 82.52C83.5699 82.66 85.3701 81.73 90.2101 78.9C93.5401 76.97 98.6799 73.1 99.3299 72.61C99.9799 72.12 99.4999 72.87 99.4999 72.87C98.4099 74.7 97.1699 76.43 95.7799 78.04C93.5699 80.79 96.7999 80.85 98.2899 79.24C99.3399 78.22 106.28 71.85 106.56 68.17C106.56 65.06 103.5 64.72 101.6 65.77C99.7 66.82 98.3701 67.78 96.2401 69.01C94.3501 70.15 92.92 70.97 91.93 71.6C90.94 72.23 91.66 70.74 91.66 70.74C93.61 68.15 98.1299 62.98 99.0699 60.59C100.01 58.2 96.55 54.48 93.66 56.14C91.34 57.4 88.91 58.46 86.4 59.29C83.74 60.22 81.45 61.34 83.17 59.29C84.89 57.24 85.7599 56.37 86.7899 55.27C89.0399 52.92 91.7699 50.16 92.2499 48.49C92.9799 45.98 91.6399 44.87 91.0299 44.42C89.8999 43.62 88.0299 43.48 87.5799 42.33C87.2699 41.53 86.96 39.17 86.6 38.22C86 36.5 84.3399 35.39 82.5199 35.49C80.7399 35.52 78.9901 36.03 77.4701 36.95C77.4701 36.95 72.6501 40.45 70.7001 41.78C67.9501 43.67 72.63 38.49 72.63 38.49C72.63 38.49 77.6899 33.43 76.0799 31.17C74.9899 29.51 73.75 27.96 72.38 26.52C70.4 24.59 65.19 28.76 65.19 28.76C65.19 28.76 63.2601 25.31 61.9701 24.45C61.1101 23.87 59.13 23.29 49.68 28.63C46.69 30.35 44.51 31.76 40.37 34.37C38.23 35.71 35.69 37.32 32.11 39.64C32.11 39.64 30.95 40.24 31.65 39.25C32.61 37.91 33.6699 36.64 34.8099 35.45C38.5599 31.28 43.3499 28.89 44.7999 27.89C45.2699 27.56 45.8899 25.72 45.0799 25.99C42.6899 26.61 35.5399 30.19 30.7599 35.24C27.4199 38.63 23.5199 42.83 24.0099 46.53C24.2199 47.88 25.3801 48.87 26.7401 48.86C28.3601 48.95 29.67 48.74 33.17 47.01C35.13 46.04 38.5799 43.98 38.7999 44.3C39.0199 44.62 38.0199 45.16 36.3099 46.3C35.0999 47.11 34.32 47.59 30.92 49.75C28.19 51.47 23.08 54.73 22.61 56.8C22.14 58.86 23.1599 61.97 26.2599 61.22L36.3099 58.45L36.2999 58.48Z" fill="white"/>
<path d="M81.7596 88.42C74.3596 88.14 62.5598 87.79 60.1998 86.81C58.5798 86.09 61.4898 82.86 60.6798 81.81C59.8698 80.76 57.4498 76.36 56.4598 76.58C54.7398 76.95 53.0596 82.47 52.4996 86.26C52.3196 87.46 50.1697 87.25 46.1097 87.58C43.6697 87.78 37.9098 88.05 37.9098 88.05L32.8597 88.39C32.1997 88.44 29.4896 88.59 27.7496 88.82C26.0096 89.05 26.7098 90.98 28.9298 90.93C50.9198 90.93 54.2897 91.42 55.3097 89.38C56.4797 90.33 58.2097 90.94 62.5897 90.9H77.2496C82.8396 90.9 92.5997 90.67 94.5597 90.57C96.5197 90.47 96.9596 89.17 94.2996 89.07L81.7496 88.41L81.7596 88.42Z" fill="white"/>
</g>
<defs>
<clipPath id="clip0_269_73">
<rect width="122" height="122" fill="white"/>
</clipPath>
</defs>
</svg>
