<svg width="122" height="122" viewBox="0 0 122 122" fill="none" xmlns="http://www.w3.org/2000/svg">
<g clip-path="url(#clip0_269_68)">
<path d="M61 122C94.6894 122 122 94.6894 122 61C122 27.3106 94.6894 0 61 0C27.3106 0 0 27.3106 0 61C0 94.6894 27.3106 122 61 122Z" fill="#FC86C2"/>
<path d="M30.75 47.4H36.6401V74.75H30.75V47.4Z" fill="black"/>
<path d="M41.8701 74.75V47.4H47.8401C49.9101 50.49 51.9402 53.58 53.9402 56.68C55.9402 59.78 57.9402 62.92 59.9302 66.11V47.41H65.5901V74.76H59.6201C57.6301 71.57 55.6201 68.38 53.5801 65.18C51.5401 61.98 49.53 58.88 47.54 55.87V74.77H41.8801L41.8701 74.75Z" fill="black"/>
<path d="M70.5498 47.4H80.9897C83.8997 47.4 86.3699 47.94 88.4099 49.01C90.4499 50.08 92.0098 51.63 93.0798 53.66C94.1498 55.69 94.6899 58.14 94.6899 61.02C94.6899 63.9 94.1498 66.37 93.0598 68.42C91.9698 70.47 90.4099 72.04 88.3699 73.12C86.3299 74.2 83.86 74.75 80.95 74.75H70.5498V47.4ZM80.6499 69.7C83.2299 69.7 85.1898 68.95 86.5398 67.46C87.8898 65.97 88.5698 63.82 88.5698 61.01C88.5698 58.2 87.8998 56.11 86.5598 54.64C85.2198 53.17 83.2599 52.44 80.6899 52.44H76.4399V69.69H80.6499V69.7Z" fill="black"/>
</g>
<defs>
<clipPath id="clip0_269_68">
<rect width="122" height="122" fill="white"/>
</clipPath>
</defs>
</svg>
