<svg width="122" height="122" viewBox="0 0 122 122" fill="none" xmlns="http://www.w3.org/2000/svg">
<g clip-path="url(#clip0_269_77)">
<path d="M61 122C94.6894 122 122 94.6894 122 61C122 27.3106 94.6894 0 61 0C27.3106 0 0 27.3106 0 61C0 94.6894 27.3106 122 61 122Z" fill="#E91D0E"/>
<path d="M49.8601 93.56C49.4601 93.65 49.1402 93.95 48.9102 94.23H54.8003C54.2003 93.1 53.4701 91.68 53.3801 91.27C53.3801 91.27 50.6801 93.37 49.8601 93.56Z" fill="white"/>
<path d="M40.8298 91.47C40.8698 90.87 40.83 88.85 40.45 88.4C40.45 88.4 40.23 89.64 40.04 90.05C39.91 90.33 38.8499 92.72 38.1699 94.25H41.5898C41.4898 93.96 41.37 93.63 41.28 93.43C41.09 93.02 40.7898 92.08 40.8298 91.48" fill="white"/>
<path d="M86.2605 78.67C85.8105 79.61 85.1004 79.79 84.6504 79.87C84.2004 79.95 84.0505 80.21 83.5305 80.84C83.0105 81.48 82.3703 82.45 80.0803 85.79C77.8003 89.12 70.9404 87.85 67.1204 87.06C63.3004 86.27 62.7404 85.07 62.4404 82.41C62.1404 79.75 64.0904 78.17 64.6504 77.91C65.2104 77.65 67.6805 76.67 69.2205 75.33C70.7605 73.98 73.2303 73.72 73.6003 73.72C73.9703 73.72 74.9804 73.64 78.3604 73.27C81.7304 72.9 85.1404 73.8 87.4604 74.51C89.4204 75.11 93.3405 77.3 95.2205 78.36V32.85C95.2205 30.04 92.9404 27.75 90.1204 27.75H84.9004C86.7704 29.33 89.5805 32.47 90.0505 35.62C90.6405 39.55 86.2504 40.86 85.8904 40.99C85.5304 41.12 85.3804 41.2 85.3804 41.2C84.0704 38.48 85.2505 37.3 85.7905 36.5C86.3305 35.7 85.5304 35.32 84.7104 34.96C83.8904 34.6 83.6105 34.24 83.4805 33.81C83.3505 33.37 83.2705 32.76 82.9705 32.12C82.6605 31.48 82.0705 31.38 81.5305 31.32C80.9905 31.27 80.5605 30.96 80.2505 30.88C79.9405 30.8 79.4805 30.8 79.4805 30.8L79.5005 31.24C79.5005 31.24 78.0103 30.47 76.5703 29.41C75.5503 28.66 75.2804 28.41 74.8704 27.75H72.6003C72.7203 28.35 72.9304 28.7 73.1204 28.97C73.3804 29.33 72.6805 30.31 72.0205 30.51C71.3505 30.72 69.8103 30.23 69.8103 30.23C67.6303 30.82 67.7104 30.46 65.1104 30.84C62.5204 31.23 62.0503 32.95 61.5903 34C61.1203 35.05 61.9505 34.67 60.7205 36.41C59.4905 38.16 56.8405 38.72 55.7605 38.7C54.6805 38.68 55.0203 38.54 55.0703 41.93C55.1203 45.32 55.6105 44.86 56.7405 45.14C57.8705 45.42 58.3005 43.91 58.4905 43.68C58.6705 43.45 58.6904 43.14 58.4404 43.12C57.1904 43 56.4403 42.73 56.0803 42.4C55.7203 42.07 56.2403 41.4 56.8203 40.99C57.4103 40.58 59.1804 39.63 59.7004 39.4C60.2104 39.17 61.7004 38.68 62.3704 38.55C63.0404 38.42 63.1405 39.01 63.2905 39.32C63.4205 39.59 63.3404 39.88 63.9304 39.81C67.4304 39.35 68.1904 39.91 68.4304 39.89C68.6604 39.86 68.9705 39.61 69.0205 39.17C69.0705 38.74 67.8405 38.48 67.2705 38.32C66.7005 38.16 63.4705 38.11 63.4705 38.11C63.4705 38.11 62.6505 37.47 62.5005 35.93C62.3405 34.39 66.2204 32.82 67.6104 32.44C69.0004 32.05 72.3604 31.57 76.1904 32.08C80.0204 32.59 81.6405 34.98 82.3005 37.61C82.9705 40.23 80.9404 41.05 80.6304 41.08C80.3204 41.1 79.6604 41.75 79.3704 42.23C79.0904 42.72 78.1905 43.39 77.5505 43.77C76.9105 44.15 75.9304 45 75.9304 45C75.9304 45 75.9104 45.64 75.1104 45.95C74.3104 46.26 73.7305 44.64 73.2405 43.56C72.7505 42.48 72.3204 42.02 71.9004 41.17C71.4904 40.32 70.8203 40.14 70.5703 40.14C70.3203 40.14 70.2405 40.58 70.2405 41.27C70.2405 41.96 69.6005 42.66 68.5205 43.35C67.4405 44.05 65.2605 42.86 65.0005 42.76C64.7405 42.66 63.5104 42.17 63.1504 42.01C62.7904 41.86 62.6603 41.63 62.3503 41.27C62.0403 40.91 61.4805 41.53 61.3005 41.66C61.1205 41.79 60.8703 42.02 61.3303 42.61C61.7903 43.2 63.2604 43.69 63.9504 43.89C64.6504 44.09 65.4103 45.02 65.8303 45.35C66.2403 45.68 66.6805 45.99 66.9604 45.81C68.8704 44.59 71.2003 44.27 71.5803 44.27C71.9603 44.27 73.5805 44.3 72.7905 46.76C71.7005 50.15 68.1404 50.84 65.3904 50.95C62.6404 51.05 61.2303 50.36 61.0703 50.36C60.9103 50.36 60.8905 50.67 60.9705 50.67C61.0505 50.67 61.9504 51.31 62.6204 51.78C63.2804 52.24 64.4104 52.96 64.8804 52.96C65.3504 52.96 66.8604 52.45 67.3704 52.32C67.8804 52.19 69.1404 51.89 70.1404 51.58C71.1404 51.27 74.9904 48.17 75.6904 47.47C76.3904 46.78 76.9204 45.16 77.1804 45.08C77.4304 45 77.9203 45.41 78.3103 45.47C78.7003 45.52 79.5205 44.36 79.7205 43.54C79.9305 42.72 79.9804 42.62 80.2104 42.57C80.4404 42.52 80.5205 43.08 80.5205 43.08C80.5205 43.08 80.8004 44.52 80.6804 46.52C80.5504 48.52 80.3705 49.04 79.7805 50.73C79.1905 52.42 77.1605 52.6 76.4905 52.81C75.8205 53.02 74.1505 53.55 72.9705 53.76C71.7905 53.96 71.1704 53.32 70.3804 52.96C70.1004 52.83 68.5604 52.57 68.4304 53.01C67.8804 54.89 71.2005 55.91 71.7405 56.04C75.2605 56.88 80.1704 55.19 80.4204 53.09C80.8104 49.92 81.1603 49.55 81.5803 49.08C81.9903 48.62 83.1003 49 83.1003 49C83.5103 48.59 85.4404 47.17 85.4404 47.17C85.4404 47.17 86.0605 46.86 85.7505 46.37C85.4405 45.88 85.2404 43.91 87.6804 44.16C90.1204 44.42 90.9404 47.86 90.9404 47.86C90.9404 47.86 91.9205 49.89 91.2205 55.05C90.5305 60.21 83.6504 65.5 77.3804 67.48C71.1104 69.46 68.1304 69.23 67.3604 69.23C66.5904 69.23 65.0505 68.61 64.5405 68.51C64.0305 68.41 62.7205 67.53 62.2805 67.35C61.8405 67.17 60.3305 66.4 60.0005 66.25C59.6705 66.09 58.4805 65.35 57.7905 64.86C57.0905 64.37 56.9204 63.86 56.6804 63.34C56.4504 62.83 55.1905 61.83 55.0405 61.7C54.8805 61.57 55.0405 61.37 55.0405 61.37C56.4805 61.99 66.1804 63.35 66.9504 63.37C67.7204 63.39 71.2404 63.5 71.7004 63.5C72.1604 63.5 72.9805 63.78 73.0105 63.19C73.0405 62.6 70.3205 62.19 70.0105 62.16C69.7005 62.14 68.3403 62.11 67.3403 61.98C66.3403 61.85 63.9203 58.1 63.5903 57.62C63.2603 57.13 63.1305 57.26 62.5105 56.95C61.8905 56.64 59.7405 54.97 59.4805 54.69C59.2305 54.41 59.6904 53.33 59.4304 53.05C59.1704 52.76 58.3504 53.23 57.7004 53.52C56.1704 54.21 55.6003 53.42 55.6003 53.42L53.5005 51.22L53.0005 52.32C53.0005 52.32 58.2905 56.62 59.7905 57.82C61.2905 59.02 60.1904 59.42 60.1904 59.42C60.1904 59.42 59.0904 60.62 58.6904 60.72C58.2904 60.82 55.0903 60.22 52.6003 59.52C50.1003 58.82 49.3003 58.02 46.8103 55.82C44.3103 53.62 43.3104 47.93 43.6104 46.83C43.9104 45.73 44.0103 44.03 43.8103 43.53C43.6103 43.03 43.2104 41.33 44.1104 41.33C45.0104 41.33 45.7103 43.33 47.8103 45.73C49.9103 48.13 52.2103 48.93 53.1003 48.43C54.0003 47.93 52.8005 46.43 52.3005 45.53C51.8005 44.63 51.9004 44.33 49.9004 41.83C47.9004 39.33 49.3004 37.43 49.7004 36.54C50.1004 35.64 51.3003 33.94 51.6003 31.14C51.7603 29.65 52.3505 28.64 53.2205 27.74H31.9204C29.1004 27.74 26.8203 30.02 26.8203 32.84V50.97C28.2103 51.44 31.3004 52.5 31.8604 52.95C32.5804 53.54 38.9605 58.36 38.7205 67C38.7005 67.92 39.0104 68.22 39.4104 68.67C39.6404 68.92 41.8805 71.08 41.4905 72.42C40.4605 70.9 39.4404 70.11 39.1304 69.95C38.8204 69.79 38.4905 69.62 38.2605 70.18C38.0305 70.74 37.8205 72.26 34.7705 71.82C31.9705 71.42 29.6603 70.94 26.8303 67.09V88.95C26.8303 91.76 29.1104 94.05 31.9304 94.05H35.9905C36.4405 93.14 36.6905 92.55 37.0305 91.77C37.5205 90.65 39.0903 86.64 39.8403 85.36C40.5903 84.09 41.6804 82.4 41.6804 82.4C41.6804 82.4 41.3404 79.74 41.4204 78.2C41.4904 76.66 42.3203 73.25 42.3203 73.25C42.3203 73.25 42.6205 72.69 42.4705 72.09C42.3205 71.49 42.0905 70.86 42.2505 69.77C42.4005 68.68 42.8905 67 43.7505 66.21C44.6105 65.42 45.2104 64.97 45.7004 65.01C46.1904 65.05 46.9404 65.76 47.9104 68.04C47.9104 68.04 47.3905 68.11 46.9705 68C46.5605 67.89 46.8204 68.22 46.9004 68.34C46.9704 68.45 47.9504 69.2 47.4604 70.14C46.9704 71.08 44.6404 73.89 45.1304 74.56C45.4704 75.01 45.6604 74.6 46.1804 74.04C46.7004 73.48 47.8605 72.13 48.0505 72.2C48.2405 72.28 47.6704 74.23 45.6504 76.32C45.6504 76.32 46.2104 76.58 45.6504 77.63C45.0904 78.68 44.2604 79.77 44.1504 79.99C44.0404 80.22 44.0404 80.74 44.3704 80.44C44.7104 80.14 47.8905 77.59 51.0005 77.59C53.2505 77.59 53.4403 78.28 53.8503 78.49C54.2203 78.68 54.7904 79.31 54.9004 79.65C55.0104 79.98 55.1605 80.25 55.7205 80.44C56.2805 80.63 58.1204 81.08 58.3804 83.47C58.3804 83.47 59.3504 84.67 58.1504 86.5C58.1504 86.5 67.5405 85.24 71.5205 94.03H90.1404C92.9604 94.03 95.2405 91.75 95.2405 88.93V79.1C93.6505 78.16 90.2005 77.73 89.7305 77.73C89.1705 77.73 86.7305 77.69 86.2805 78.63M45.3704 57.34C45.0704 57.42 44.7305 57.27 44.2505 57.74C44.1005 57.89 43.9104 58.22 43.9004 58.55C43.8704 59.52 41.7605 58.51 41.5005 58.43C40.8305 58.22 39.7804 57.58 37.4604 54.95C35.1304 52.33 34.3105 46.93 34.2405 44.8C34.1605 42.66 35.1004 38.77 37.8704 35.1C40.6404 31.43 45.4804 30.79 46.1104 30.79C46.7404 30.79 47.3504 30.87 47.3804 31.24C47.4204 31.62 47.3005 31.62 47.3005 32.06C47.3005 32.06 47.6405 32.88 47.5205 34.2C47.2705 37.19 44.4105 39.52 43.0205 40.68C41.6405 41.84 41.7803 43.38 41.8203 44.91C41.8603 46.44 43.0603 51.54 43.3203 52.4C43.5803 53.26 45.2805 56.23 45.5405 56.61C45.8005 56.99 45.6403 57.26 45.3403 57.34M52.7805 73.05C51.2605 71.97 50.3905 69.94 49.4705 67.32C48.5405 64.7 48.0103 62.88 47.5903 61.7C47.1803 60.52 46.9003 60.42 46.8503 60.11C46.8003 59.8 46.9005 59.62 47.0305 59.5C47.0305 59.5 49.2904 59.86 51.1704 60.71C53.0404 61.56 52.9904 61.71 54.6104 62.79C56.2304 63.87 56.8703 66.1 57.3103 66.92C57.7503 67.74 59.2404 68.37 59.4504 68.47C59.6604 68.57 60.3303 69.06 60.3303 69.06C66.8503 71.55 71.2304 71.75 71.4404 71.8C71.6504 71.85 71.7505 72.03 71.7505 72.03C71.1305 72.98 65.3303 73.16 65.3303 73.16C65.3303 73.16 63.3305 73.11 60.0405 74.06C56.7505 75.01 54.3105 74.14 52.8005 73.06" fill="white"/>
</g>
<defs>
<clipPath id="clip0_269_77">
<rect width="122" height="122" fill="white"/>
</clipPath>
</defs>
</svg>
