<svg xmlns="http://www.w3.org/2000/svg" viewBox="-3 -3 6 6">
	<path d="m0 3a3 3 0 1 1 0-6 3 3 0 1 1 0 6z

 m-1.6327-3.9864c0 0 0 .001 0 .0015.006.1235.0402.3294.186.4599 0 0 .1344.126.2778.1856 0 0 .2307.0987.4361.1558 0 0 .4098.0824.4773.2535 0 0 .065.1022.0471.1999 0 0 .002-.003.0045-.0094.0119-.1374-.0079-.2818-.1032-.3557.0948.0739.1146.2183.1032.3557.0174-.0397.0804-.2014.0218-.3686 0 0-.0298-.1384-.3746-.2699 0 0-.4827-.1672-.6415-.2709 0 0-.3299-.1707-.4336-.4396 0 0-.004.0407-.001.1022zm1.3217.8876c0 0 .0015.001.0025.0015-.0005-.0005-.0015-.001-.0025-.0015zm-1.0374-.06c0 0 .002.0035.005.0074.0308.0481.2029.3036.4644.3959 0 0 .1473.061.3354.0536 0 0 .0129-.002.0332-.003.0566-.0025.1682.002.2064.0769 0 0 .0015.0015.0035-.0064 0 0 0-.0005 0-.001.0025-.0104.006-.0268.007-.0466 0-.0084.0005-.0174 0-.0263 0 0 0-.0015 0-.002 0-.0025 0-.005-.0005-.0079 0-.001 0-.002 0-.0035 0-.0025-.0005-.0055-.001-.0079C-.295.2994-.295.2984-.295.2979c-.0005-.0035-.001-.0069-.002-.0104 0-.001 0-.002-.0005-.003-.0005-.0025-.001-.005-.002-.0074 0-.0015-.001-.0025-.001-.004-.0005-.0025-.0015-.005-.0025-.0069 0-.0015-.001-.0025-.0015-.004-.0015-.0035-.0025-.0069-.004-.0104 0-.001-.001-.0015-.001-.0025-.0015-.0025-.0025-.0055-.004-.0079-.0005-.0015-.0015-.003-.0025-.004-.001-.002-.0025-.0045-.004-.0064-.001-.0015-.0015-.003-.0025-.0045-.0015-.0025-.0035-.005-.005-.0074-.001-.001-.0015-.002-.002-.003-.0025-.0035-.005-.0064-.0079-.0099-.001-.0015-.0025-.0025-.0035-.004-.002-.002-.004-.004-.0059-.0064-.0015-.0015-.0025-.0025-.004-.004-.002-.002-.0045-.004-.0069-.006-.0015-.001-.0025-.0025-.004-.0035-.0035-.003-.0074-.006-.0114-.0084-.0015-.001-.0025-.0015-.004-.0025-.003-.002-.0064-.004-.0094-.006-.002-.001-.0035-.002-.0055-.003-.003-.002-.0065-.0035-.0099-.0055-.002-.001-.0035-.002-.0054-.0025-.005-.0025-.0104-.005-.0159-.0069 0 0 0 0-.0005 0 0 0-.0471-.0208-.1786-.0377 0 0-.263-.0203-.4039-.0799 0 0-.0233-.0089-.0575-.0228-.0471-.0193-.1156-.0476-.1751-.0759-.0466-.0218-.0878-.0437-.1082-.0595l-.0015-.0005zm3.0397.4897c-.1146.0511-.2367.065-.3379.065-.0665 0-.133-.0055-.198-.0184-.0437-.0089-.0863-.0218-.13-.0303-.0377-.0069-.0764-.0119-.1146-.0144-.0179-.001-.0357-.002-.0536-.002-.0744 0-.1166.0104-.1166.0104-.1573.0412-.2679.1151-.3101.1459-.0119.0089-.0188.0144-.0188.0144.2183-.0506.4549.0868.4549.0868.197.0938.4321.058.4321.058.5651-.1042.8504-.5234.8608-.5388-.0293.0308-.06.0595-.0913.0863.0313-.0273.062-.0561.0913-.0868-.1548.1181-.4684.2233-.4684.2233v.0005zm-.8226-.699c0 0 .1989-.1712.3805-.2257 0 0-.0045-.0064-.0183-.0124-.0015 0-.003.0005-.0045.001.0015 0 .003-.0005.0045-.001-.0109-.0045-.0273-.0089-.0521-.0089-.0139 0-.0303.0015-.0496.005 0 0-.0179.003-.0506.003-.0407 0-.1032-.0045-.1821-.0253 0 0-.0561-.0119-.1335-.0119-.1161 0-.2798.0273-.3775.1622 0 0-.1191.1493-.2228.3999 0 0-.19.3974-.4455.5591 0 0-.2689.2074-.634.2595 0 0-.0962.0179-.2267.0179-.1012 0-.2228-.0109-.3349-.0491 0 0-.32-.0769-.4897-.2302 0 0-.0079.0372-.0079.0913v.005c0 .0571.0094.132.0452.2009.0064.0144.0149.0327.0268.0501.0015.0025.0035.005.0055.0074.0521.067.1414.1429.2386.1498 0 0 .1379.0253.3537-.0665 0 0 .3612-.131.5815-.1359 0 0 .4822.0045.6871-.0685.1548-.0551.2823-.1245.4143-.2902.132-.1657.1662-.3046.2089-.3934 0 0 .128-.2664.2848-.3929h-.0015zm-2.3-.9803c0 0 .0923.2595.4133.4564 0 0 .2664.1523.4619.2277 0 0 .5036.1786.5036.5051 0 0 .0189.1796.003.2505l.0015-.002c.0114-.0412.0203-.0824.0273-.1235-.0064.0412-.0159.0829-.0273.1235.0203-.0273.25-.3483.129-.6355 0 0-.0933-.2074-.4917-.387 0 0-.4415-.1895-.6504-.3637 0 0-.3483-.3046-.3736-.5696-.0124.0571-.0184.1106-.0189.1617 0-.0506.0065-.1047.0189-.1617-.0055.0099-.123.2238.0035.5175v.0005zm.4723 2.3983c.1568-.1865.25-.1935.25-.1935h-.003c-.0958.0248-.1761.0799-.252.1424.0759-.063.1563-.1176.252-.1429-.0119-.002-.0243-.003-.0367-.003-.1727 0-.4063.1756-.4063.1756-.1498.0977-.2783.1359-.2783.1359-.0402.0104-.0774.0149-.1121.0149-.1082 0-.1826-.0427-.2113-.0625.0045.0055.0094.0114.0139.0169-.0045-.0055-.0094-.0109-.0139-.0169-.0089-.006-.0139-.0099-.0139-.0099.0412.0645.0878.1126.0878.1126.1687.187.3617.1359.3617.1359.134-.0377.3622-.3056.3622-.3056zm-.57.2322c-.006-.002-.0119-.0035-.0179-.006.006.002.0119.004.0179.006zm-.0193-.0064c-.0064-.0025-.0124-.005-.0189-.0074.006.0025.0124.005.0189.0074zm-.0243-.0099c-.0045-.002-.0084-.004-.0129-.006.004.002.0084.004.0129.006zm-.0198-.0094c-.0045-.002-.0084-.0045-.0129-.0069.0045.0025.0084.0045.0129.0069zm-.0238-.0134c-.0035-.002-.0064-.004-.0094-.006.003.002.0064.004.0094.006zm-.0193-.0124c0 0-.0045-.003-.007-.005.0025.0015.0045.003.007.005zm-.0422-.0313c0 0-.003-.0025-.0045-.0035.0015.001.003.0025.0045.0035zm-.0154-.0134c0 0-.003-.0025-.004-.004.0015.0015.0025.0025.004.004zm-.0248-.0238c0 0-.002-.002-.003-.003.001.001.002.002.003.003zm.2555.1325c.0069 0 .0139.001.0208.001.0064 0 .0129 0 .0194-.0005-.0134.001-.0268.001-.0402 0v-.0005zm.0814-.006c.0124-.0025.0248-.0064.0372-.0109-.0124.0045-.0248.0079-.0372.0109zm-.0397.006c.006 0 .0114-.001.0174-.002-.006.001-.0114.0015-.0174.002zm.0208-.0025c.0055-.001.0109-.002.0159-.003-.0055.001-.0109.002-.0159.003zm.0913-.0298c-.0035.002-.0069.0035-.0109.0055.0035-.0015.0069-.0035.0109-.0055zm-.0174.0084c-.0045.002-.0089.0035-.0129.0055.0045-.0015.0089-.0035.0129-.0055zm.8454-.4202c.005-.0005.0099-.0015.0154-.0015h-.004c-.058 0-.2094.0213-.3096.2287 0 0-.1116.2972-.2267.3726 0 0-.0739.0615-.1895.0615-.0064 0-.0451-.0035-.0521-.004.0451.0184.0873.0347.1364.0427.064.0104.1488.0263.2133.0114.127-.0288.2069-.1126.2515-.2337.0124-.0342.0174-.0704.0243-.1062.0154-.0744.0397-.1478.0685-.2178.0228-.0546.0531-.125.1082-.1543 0 0-.0075-.001-.0204-.0015-.0055 0-.0104.001-.0154.0015v.0005zm-.0422.0169c0 0-.001.001-.0015.001 0 0 .001-.001.0015-.001zm2.9405-1.4844c-.002.003-.004.0055-.006.0084l-.001.001c-.0079.0109-.0184.0218-.0293.0337-.0943.0977-.2773.2168-.2773.2168-.1196.0893-.264.1379-.4093.1637-.0873.0154-.1781.0124-.2684.0094-.1186-.004-.2372-.0079-.3493.0298-.2947.0977-.4872.4172-.4872.4172.0045-.003.0084-.0055.0129-.0084.0868-.0526.1855-.0972.2848-.1191.0526-.0114.1171-.0164.1612-.0129.1191.0094.2367.0213.3557.0193.0079 0 .0164 0 .0243 0 .3721-.0268.6053-.195.6053-.195.389-.2456.3835-.5646.3835-.5646v.0005zm-.0744.129c-.004.0079-.0079.0159-.0124.0233.0045-.0079.0084-.0154.0124-.0233zm-.0481.0829c0 0-.003.005-.005.0074.0015-.0025.0035-.005.005-.0074z" fill="#FF9A02"/>
</svg>