<svg width="122" height="122" viewBox="0 0 122 122" fill="none" xmlns="http://www.w3.org/2000/svg">
<g clip-path="url(#clip0_269_82)">
<path d="M61 122C94.6894 122 122 94.6894 122 61C122 27.3106 94.6894 0 61 0C27.3106 0 0 27.3106 0 61C0 94.6894 27.3106 122 61 122Z" fill="#FF9A02"/>
<path d="M28.0907 41.65C28.0907 41.65 28.0907 41.67 28.0907 41.68C28.2107 44.17 28.9007 48.32 31.8407 50.95C31.8407 50.95 34.5505 53.49 37.4405 54.69C37.4405 54.69 42.0906 56.68 46.2306 57.83C46.2306 57.83 54.4907 59.49 55.8507 62.94C55.8507 62.94 57.1606 65 56.8006 66.97C56.8006 66.97 56.8405 66.91 56.8905 66.78C57.1305 64.01 56.7306 61.1 54.8106 59.61C56.7206 61.1 57.1205 64.01 56.8905 66.78C57.2405 65.98 58.5107 62.72 57.3307 59.35C57.3307 59.35 56.7306 56.56 49.7806 53.91C49.7806 53.91 40.0507 50.54 36.8507 48.45C36.8507 48.45 30.2007 45.01 28.1107 39.59C28.1107 39.59 28.0307 40.41 28.0907 41.65ZM54.7306 59.54C54.7306 59.54 54.7606 59.56 54.7806 59.57C54.7706 59.56 54.7506 59.55 54.7306 59.54Z" fill="black"/>
<path d="M33.8203 58.33C33.8203 58.33 33.8602 58.4 33.9202 58.48C34.5402 59.45 38.0103 64.6 43.2803 66.46C43.2803 66.46 46.2503 67.69 50.0403 67.54C50.0403 67.54 50.3002 67.5 50.7102 67.48C51.8502 67.43 54.1001 67.52 54.8701 69.03C54.8701 69.03 54.9002 69.06 54.9402 68.9C54.9402 68.9 54.9402 68.89 54.9402 68.88C54.9902 68.67 55.0603 68.34 55.0803 67.94C55.0803 67.77 55.0903 67.59 55.0803 67.41C55.0803 67.41 55.0803 67.38 55.0803 67.37C55.0803 67.32 55.0803 67.27 55.0703 67.21C55.0703 67.19 55.0703 67.17 55.0703 67.14C55.0703 67.09 55.0603 67.03 55.0503 66.98C55.0503 66.96 55.0503 66.94 55.0503 66.93C55.0403 66.86 55.0303 66.79 55.0103 66.72C55.0103 66.7 55.0102 66.68 55.0002 66.66C54.9902 66.61 54.9802 66.56 54.9602 66.51C54.9602 66.48 54.9402 66.46 54.9402 66.43C54.9302 66.38 54.9101 66.33 54.8901 66.29C54.8901 66.26 54.8704 66.24 54.8604 66.21C54.8304 66.14 54.8103 66.07 54.7803 66C54.7803 65.98 54.7603 65.97 54.7603 65.95C54.7303 65.9 54.7102 65.84 54.6802 65.79C54.6702 65.76 54.6501 65.73 54.6301 65.71C54.6101 65.67 54.5803 65.62 54.5503 65.58C54.5303 65.55 54.5202 65.52 54.5002 65.49C54.4702 65.44 54.4301 65.39 54.4001 65.34C54.3801 65.32 54.3704 65.3 54.3604 65.28C54.3104 65.21 54.2602 65.15 54.2002 65.08C54.1802 65.05 54.1501 65.03 54.1301 65C54.0901 64.96 54.0503 64.92 54.0103 64.87C53.9803 64.84 53.9602 64.82 53.9302 64.79C53.8902 64.75 53.8403 64.71 53.7903 64.67C53.7603 64.65 53.7402 64.62 53.7102 64.6C53.6402 64.54 53.5602 64.48 53.4802 64.43C53.4502 64.41 53.4301 64.4 53.4001 64.38C53.3401 64.34 53.2702 64.3 53.2102 64.26C53.1702 64.24 53.1403 64.22 53.1003 64.2C53.0403 64.16 52.9701 64.13 52.9001 64.09C52.8601 64.07 52.8303 64.05 52.7903 64.04C52.6903 63.99 52.5802 63.94 52.4702 63.9C52.4702 63.9 52.4702 63.9 52.4602 63.9C52.4602 63.9 51.5104 63.48 48.8604 63.14C48.8604 63.14 43.5602 62.73 40.7202 61.53C40.7202 61.53 40.2503 61.35 39.5603 61.07C38.6103 60.68 37.2303 60.11 36.0303 59.54C35.0903 59.1 34.2603 58.66 33.8503 58.34L33.8203 58.33Z" fill="black"/>
<path d="M95.0898 68.2C92.7798 69.23 90.3198 69.51 88.2798 69.51C86.9398 69.51 85.5998 69.4 84.2898 69.14C83.4098 68.96 82.5497 68.7 81.6697 68.53C80.9097 68.39 80.1299 68.29 79.3599 68.24C78.9999 68.22 78.6398 68.2 78.2798 68.2C76.7798 68.2 75.9297 68.41 75.9297 68.41C72.7597 69.24 70.5297 70.73 69.6797 71.35C69.4397 71.53 69.2998 71.64 69.2998 71.64C73.6998 70.62 78.4697 73.39 78.4697 73.39C82.4397 75.28 87.1797 74.56 87.1797 74.56C98.5697 72.46 104.32 64.01 104.53 63.7C103.94 64.32 103.32 64.9 102.69 65.44C103.32 64.89 103.94 64.31 104.53 63.69C101.41 66.07 95.0898 68.19 95.0898 68.19V68.2Z" fill="black"/>
<path d="M78.51 54.11C78.51 54.11 82.5199 50.66 86.1799 49.56C86.1799 49.56 86.0901 49.43 85.8101 49.31C85.7801 49.31 85.75 49.32 85.72 49.33C85.75 49.33 85.7801 49.32 85.8101 49.31C85.5901 49.22 85.26 49.13 84.76 49.13C84.48 49.13 84.15 49.16 83.76 49.23C83.76 49.23 83.4 49.29 82.74 49.29C81.92 49.29 80.6601 49.2 79.0701 48.78C79.0701 48.78 77.9399 48.54 76.3799 48.54C74.0399 48.54 70.74 49.09 68.77 51.81C68.77 51.81 66.37 54.82 64.28 59.87C64.28 59.87 60.4501 67.88 55.3 71.14C55.3 71.14 49.88 75.32 42.52 76.37C42.52 76.37 40.58 76.73 37.95 76.73C35.91 76.73 33.46 76.51 31.2 75.74C31.2 75.74 24.7501 74.19 21.3301 71.1C21.3301 71.1 21.1699 71.85 21.1699 72.94V73.04C21.1699 74.19 21.3601 75.7 22.0801 77.09C22.2101 77.38 22.3799 77.75 22.6199 78.1C22.6499 78.15 22.69 78.2 22.73 78.25C23.78 79.6 25.58 81.13 27.54 81.27C27.54 81.27 30.3199 81.78 34.6699 79.93C34.6699 79.93 41.9499 77.29 46.3899 77.19C46.3899 77.19 56.11 77.28 60.24 75.81C63.36 74.7 65.9301 73.3 68.5901 69.96C71.2501 66.62 71.94 63.82 72.8 62.03C72.8 62.03 75.38 56.66 78.54 54.11H78.51Z" fill="black"/>
<path d="M32.1499 34.35C32.1499 34.35 34.01 39.58 40.48 43.55C40.48 43.55 45.8501 46.62 49.7901 48.14C49.7901 48.14 59.94 51.74 59.94 58.32C59.94 58.32 60.32 61.94 60 63.37L60.03 63.33C60.26 62.5 60.4401 61.67 60.5801 60.84C60.4501 61.67 60.26 62.51 60.03 63.33C60.44 62.78 65.0699 56.31 62.6299 50.52C62.6299 50.52 60.75 46.34 52.72 42.72C52.72 42.72 43.8201 38.9 39.6101 35.39C39.6101 35.39 32.5901 29.25 32.0801 23.91C31.8301 25.06 31.71 26.14 31.7 27.17C31.7 26.15 31.8301 25.06 32.0801 23.91C31.9701 24.11 29.5999 28.42 32.1499 34.34V34.35Z" fill="black"/>
<path d="M41.6704 82.69C44.8304 78.93 46.7104 78.79 46.7104 78.79H46.6504C44.7204 79.29 43.1006 80.4 41.5706 81.66C43.1006 80.39 44.7204 79.29 46.6504 78.78C46.4104 78.74 46.1604 78.72 45.9104 78.72C42.4304 78.72 37.7205 82.26 37.7205 82.26C34.7005 84.23 32.1106 85 32.1106 85C31.3006 85.21 30.5506 85.3 29.8506 85.3C27.6706 85.3 26.1706 84.44 25.5906 84.04C25.6806 84.15 25.7804 84.27 25.8704 84.38C25.7804 84.27 25.6806 84.16 25.5906 84.04C25.4106 83.92 25.3105 83.84 25.3105 83.84C26.1405 85.14 27.0806 86.11 27.0806 86.11C30.4806 89.88 34.3704 88.85 34.3704 88.85C37.0704 88.09 41.6704 82.69 41.6704 82.69ZM30.1804 87.37C30.0604 87.33 29.9406 87.3 29.8206 87.25C29.9406 87.29 30.0604 87.33 30.1804 87.37ZM29.7905 87.24C29.6605 87.19 29.5404 87.14 29.4104 87.09C29.5304 87.14 29.6605 87.19 29.7905 87.24ZM29.3005 87.04C29.2105 87 29.1305 86.96 29.0405 86.92C29.1205 86.96 29.2105 87 29.3005 87.04ZM28.9004 86.85C28.8104 86.81 28.7304 86.76 28.6404 86.71C28.7304 86.76 28.8104 86.8 28.9004 86.85ZM28.4204 86.58C28.3504 86.54 28.2905 86.5 28.2305 86.46C28.2905 86.5 28.3604 86.54 28.4204 86.58ZM28.0305 86.33C28.0305 86.33 27.9404 86.27 27.8904 86.23C27.9404 86.26 27.9805 86.29 28.0305 86.33ZM27.1804 85.7C27.1804 85.7 27.1206 85.65 27.0906 85.63C27.1206 85.65 27.1504 85.68 27.1804 85.7ZM26.8704 85.43C26.8704 85.43 26.8105 85.38 26.7905 85.35C26.8205 85.38 26.8404 85.4 26.8704 85.43ZM26.3704 84.95C26.3704 84.95 26.3305 84.91 26.3105 84.89C26.3305 84.91 26.3504 84.93 26.3704 84.95ZM31.5205 87.62C31.6605 87.62 31.8004 87.64 31.9404 87.64C32.0704 87.64 32.2006 87.64 32.3306 87.63C32.0606 87.65 31.7905 87.65 31.5205 87.63V87.62ZM33.1604 87.5C33.4104 87.45 33.6604 87.37 33.9104 87.28C33.6604 87.37 33.4104 87.44 33.1604 87.5ZM32.3606 87.62C32.4806 87.62 32.5904 87.6 32.7104 87.58C32.5904 87.6 32.4806 87.61 32.3606 87.62ZM32.7805 87.57C32.8905 87.55 33.0006 87.53 33.1006 87.51C32.9906 87.53 32.8805 87.55 32.7805 87.57ZM34.6204 86.97C34.5504 87.01 34.4804 87.04 34.4004 87.08C34.4704 87.05 34.5404 87.01 34.6204 86.97ZM34.2705 87.14C34.1805 87.18 34.0905 87.21 34.0105 87.25C34.1005 87.22 34.1905 87.18 34.2705 87.14Z" fill="black"/>
<path d="M51.3103 78.67C51.4103 78.66 51.5101 78.64 51.6201 78.64H51.5403C50.3703 78.64 47.3203 79.07 45.3003 83.25C45.3003 83.25 43.0502 89.24 40.7302 90.76C40.7302 90.76 39.2402 92 36.9102 92C36.7802 92 36.0004 91.93 35.8604 91.92C36.7704 92.29 37.6204 92.62 38.6104 92.78C39.9004 92.99 41.6102 93.31 42.9102 93.01C45.4702 92.43 47.0802 90.74 47.9802 88.3C48.2302 87.61 48.3302 86.88 48.4702 86.16C48.7802 84.66 49.2703 83.18 49.8503 81.77C50.3103 80.67 50.9203 79.25 52.0303 78.66C52.0303 78.66 51.8801 78.64 51.6201 78.63C51.5101 78.63 51.4103 78.65 51.3103 78.66V78.67ZM50.4602 79.01C50.4602 79.01 50.4402 79.03 50.4302 79.03C50.4302 79.03 50.4502 79.01 50.4602 79.01Z" fill="black"/>
<path d="M109.73 49.09C109.69 49.15 109.65 49.2 109.61 49.26L109.59 49.28C109.43 49.5 109.22 49.72 109 49.96C107.1 51.93 103.41 54.33 103.41 54.33C101 56.13 98.0897 57.11 95.1597 57.63C93.3997 57.94 91.5698 57.88 89.7498 57.82C87.3598 57.74 84.9697 57.66 82.7097 58.42C76.7697 60.39 72.8896 66.83 72.8896 66.83C72.9796 66.77 73.0597 66.72 73.1497 66.66C74.8997 65.6 76.8896 64.7 78.8896 64.26C79.9496 64.03 81.2496 63.93 82.1396 64C84.5396 64.19 86.9098 64.43 89.3098 64.39C89.4698 64.39 89.6398 64.39 89.7998 64.39C97.2998 63.85 102 60.46 102 60.46C109.84 55.51 109.73 49.08 109.73 49.08V49.09ZM108.23 51.69C108.15 51.85 108.07 52.01 107.98 52.16C108.07 52 108.15 51.85 108.23 51.69ZM107.26 53.36C107.26 53.36 107.2 53.46 107.16 53.51C107.19 53.46 107.23 53.41 107.26 53.36Z" fill="black"/>
</g>
<defs>
<clipPath id="clip0_269_82">
<rect width="122" height="122" fill="white"/>
</clipPath>
</defs>
</svg>
