<svg width="122" height="122" viewBox="0 0 122 122" fill="none" xmlns="http://www.w3.org/2000/svg">
<g clip-path="url(#clip0_269_92)">
<path d="M61 122C94.6894 122 122 94.6894 122 61C122 27.3106 94.6894 0 61 0C27.3106 0 0 27.3106 0 61C0 94.6894 27.3106 122 61 122Z" fill="#24AA83"/>
<path d="M72.6205 13.46C73.3605 14.06 74.4505 14.32 75.3805 14.73C75.1105 15.1 75.4305 15.55 75.3805 16.01C75.9805 16.01 76.4405 16.13 76.5605 16.6C77.3405 16.51 78.2005 17 78.6305 17.57C77.7805 18.39 76.3406 18.62 75.2006 19.16C74.2906 20.15 73.5905 21.35 72.6605 22.31C73.3405 22.43 73.6305 21.32 74.4205 21.22C74.9905 21.85 77.2505 21.92 76.7805 20.52C77.4305 20.64 77.3605 20.05 77.8605 20.02C77.6505 19.46 77.9505 19.06 78.0505 18.55C78.9005 19.13 79.8705 19 81.0005 19.23C81.2605 17.92 83.8205 18.66 84.4305 17.45C85.2905 17.41 85.7805 18.16 86.3905 17.54C86.8805 17.97 87.6404 18.13 88.0604 18.61C88.6104 18.6 88.8506 18.29 89.2406 18.11C90.0906 18.4 90.6106 19.03 91.0106 19.77C90.7506 20.67 90.5905 21.29 90.4305 22.13C90.7705 22.21 91.2806 22.13 91.7106 22.32C91.5106 23.18 91.0604 24.45 92.3104 24.48C92.5304 25.61 93.3704 26.1 93.7904 27.03C93.8404 27.24 93.6506 27.22 93.5006 27.23C93.6906 28.1 94.8805 27.95 94.8805 28.99C95.1805 28.12 94.1805 27.72 94.0905 26.93C95.2905 26.93 95.3805 28.06 95.3805 29.28C94.3905 30.42 92.1805 30.35 91.8505 32.14C92.2105 32.2 92.3205 32.53 92.4406 32.83C92.9906 32.75 92.8606 32 93.2206 31.75C94.1606 31.6 94.6505 31.18 95.6805 31.54C96.0005 31.63 95.8206 31.22 95.9706 31.14C96.2406 31.11 96.5306 31.55 96.7606 31.24C97.1606 31.6 97.3704 32.14 97.5504 32.71C82.5604 35.06 71.7005 41.51 66.8805 53.96C71.8205 43.76 82.7104 39.46 97.5804 39.1C97.0004 39.73 96.2905 40.24 95.6205 40.78C81.3605 41.22 70.9104 45.43 67.0804 56.22C70.0404 48.55 78.0106 45.34 89.2506 46.21C88.7706 46.65 88.2704 47.06 87.7804 47.49C85.1404 47.63 82.8805 47.34 80.4105 47.52C66.5805 48.52 66.7005 63.88 62.6305 74.81C64.7305 75.03 67.2505 74.82 69.5105 74.88C70.7105 71.21 71.7605 67.39 72.9105 63.66L79.7905 63.63C80.4105 62 80.7605 60.09 81.3405 58.42C79.2405 58.2 76.7204 58.41 74.4604 58.35C75.1304 52.92 80.0805 51.72 86.7205 52.21C86.7605 52.84 85.9604 53.15 86.3304 53.78C86.1604 54.02 85.5105 53.57 85.2505 53.88C85.7505 54.1 86.2805 54.29 86.5305 54.76C86.0605 56.52 88.1005 56.93 87.9205 58.39C87.6905 58.69 86.9205 58.44 86.8405 58.89C87.0305 59.22 87.4705 58.72 87.6305 58.99C87.8805 59.36 87.3006 59.6 87.2406 59.97C87.0406 59.94 87.2105 59.53 86.9406 59.58C86.6405 59.51 86.7506 59.85 86.4506 59.78C86.4506 60.24 87.0006 60.15 87.2406 60.37C87.2406 60.63 87.2406 60.89 87.2406 61.16C87.4906 61.64 88.7905 61.44 88.4205 62.24C87.8205 62.58 87.6105 61.76 87.1405 61.66C86.4905 62.03 86.1205 62.36 85.7705 62.84C86.4705 63.4 87.2706 63.26 87.7406 64.01C87.8206 64.54 87.5906 64.78 87.4506 65.09C88.2406 66.69 88.0904 69.02 88.0604 70.98C88.1904 71.27 88.5006 71.39 88.7506 71.57C88.6206 72.13 87.9104 72.11 88.0704 72.95C87.7704 73.04 87.7605 73.43 87.3805 73.44C87.1605 74.18 86.5005 74.74 86.3105 75.7C86.1505 76.52 86.3105 77.48 85.4305 77.77C85.0105 78.62 85.0505 80.26 85.5405 81.01C84.8005 82.82 83.2005 83.78 82.9105 86.03C82.4005 85.79 82.1004 85.84 81.8304 86.23C81.4004 86.05 81.7205 85.66 81.5305 85.35C81.2605 85.47 81.2505 85.85 81.0405 86.04C80.7405 86.02 80.6005 85.83 80.3505 85.75C80.3505 86.05 80.5605 86.13 80.6505 86.34C81.8205 86.05 81.8306 86.92 82.3206 87.32C82.6806 87.29 82.7705 86.98 82.9105 86.73C83.2105 87.07 82.6905 87.42 82.7205 87.81C82.8205 88.24 83.2905 88.28 83.5105 88.59C83.6205 89.45 83.0805 89.66 83.1205 90.46C82.5205 90.47 82.4405 89.94 82.7205 89.58C82.1205 89.52 82.2205 90.41 81.6405 90.08C81.1805 90.11 81.7705 89.7 81.3405 89.69C80.6805 89.98 80.1405 90.39 79.3805 90.58C78.8805 89.58 77.4105 89.5 76.4305 89.51C76.5705 88.93 77.0405 88.68 77.3105 88.23C76.7605 88.57 76.1705 88.86 75.7405 89.32C76.0805 89.66 76.0105 90.06 75.8405 90.6C74.9205 90.51 75.0405 91.94 74.3705 91.78C75.4505 90.32 74.1505 88.6 73.4705 87.46C73.8505 86.99 73.8206 86.11 73.9506 85.39C73.3206 85.94 73.2404 87.03 73.0804 88.05C72.7404 88.4 72.2905 88.32 71.7104 88.25C71.8704 88.61 72.2406 88.77 72.6906 88.84C73.2406 88.87 72.9606 88.06 73.5706 88.15C73.8606 89.12 73.6906 89.96 74.0706 90.8C73.6406 90.96 73.4405 91.35 73.0905 91.59C72.5405 91.45 72.2605 91.53 71.8105 91.69C71.7805 91.13 72.3805 91.21 72.3005 90.61C72.1705 90.43 71.7705 90.74 71.5105 90.52C71.2005 90.9 70.9005 91.28 70.5305 91.6C68.6805 91.24 66.9305 91.83 65.6205 92.31C65.4605 92.45 65.3704 92.65 65.3304 92.9C64.8804 92.45 64.5205 92.51 64.0505 92.12C64.2205 92.51 64.2905 92.74 64.0505 93.1C64.2905 93.11 64.5305 93.12 64.5405 92.9C64.7705 93.19 64.8505 93.64 65.5205 93.49C64.7705 94.34 64.4605 95.63 62.7805 95.56C62.4805 95.82 63.0405 95.93 62.7805 96.15C62.0905 95.95 61.6004 96.04 61.2104 96.15C61.1704 95.56 61.0305 95.25 60.6205 94.88C60.7605 94.35 60.9204 93.7 60.7104 93.11C59.8204 94.36 61.0806 96.04 59.9406 96.85C59.8906 97.23 60.5105 97.24 60.2405 97.54C59.7605 97.92 58.8105 97.81 58.2805 98.14C58.2805 98.34 58.2805 98.53 58.2805 98.73C57.3405 99.37 56.2005 99.85 54.6505 99.63C54.5005 99.49 54.5605 99.13 54.5505 98.84C54.8805 98.68 55.2005 98.51 55.5305 98.34C55.3005 97.69 55.7906 97.69 55.8206 97.06C55.4206 97.03 54.0705 97.41 53.8505 96.58C53.5105 96.6 53.4805 96.93 53.1605 96.98C52.7805 96.9 52.6805 96.54 52.1805 96.59C52.1705 96.77 52.6805 97.01 52.2805 97.47C52.3905 97.69 52.9005 97.5 53.1605 97.56C53.1605 97.86 53.1605 98.15 53.1605 98.44C53.3005 98.59 53.5405 98.64 53.8505 98.63C53.4105 98.82 53.9405 99.04 53.7505 99.22C53.9005 99.43 53.9905 99.15 54.2405 99.32C54.2005 99.91 53.5005 99.83 53.7505 100.7C53.1605 101.32 52.3005 101.67 51.4005 101.99C51.3305 101.66 51.2405 101.36 51.0005 101.2C50.7405 101.49 51.4005 102.1 50.9105 102.38C50.5705 102.46 50.4906 102.27 50.3206 102.19C49.7106 102.56 49.8004 103.15 49.8304 103.76C49.4704 103.8 49.5305 103.4 49.4305 103.17C48.8605 102.9 48.0406 103.47 47.9506 102.68C47.6606 102.82 47.3605 102.95 46.8705 102.88C46.8705 103.28 47.3805 103.15 47.7605 103.17C47.6505 104 47.7305 104.86 46.4905 104.75C46.2705 103.89 45.0805 104 44.5205 103.48C44.3905 103.55 44.3406 103.69 44.3206 103.87C44.2806 104.17 44.6804 104.04 44.7104 104.26C44.4904 104.46 44.1706 104.58 44.3206 105.15C43.9506 105.24 43.6305 105.38 43.2405 105.45C43.1005 105.1 42.9905 104.71 42.6505 104.57C42.1105 104.65 41.7004 104.86 41.0804 104.87C40.7404 104.72 40.7405 104.23 40.2905 104.19C40.1605 104.79 40.7606 104.64 40.6906 105.17C40.0906 105.59 39.2105 105.72 39.0205 106.55C38.6305 106.25 38.3705 106.42 38.1305 105.96C37.9605 106.34 37.5305 106.48 37.0505 106.55C36.8505 106.33 37.6705 105.49 37.7305 104.88C37.7205 104.63 37.2905 105.27 37.1405 104.88C36.8905 105.21 36.6205 105.96 36.1605 105.77C35.8705 105.28 36.7305 105.19 36.7505 104.69C36.3805 104.35 35.9505 104.67 35.7705 104.2C35.2505 104.37 36.2205 104.69 35.8705 104.99C35.4505 104.94 34.8905 105.14 34.5005 105.39C34.5005 105.26 34.5005 105.13 34.5005 105C34.0905 104.92 34.2905 105.44 34.1105 105.59C33.9305 105.58 33.7805 105.53 33.7205 105.39C33.5505 105.61 33.4405 105.89 33.1305 105.98C32.8405 105.85 32.9004 105.36 32.8304 105C32.4104 105.1 32.4905 105.7 31.8505 105.59C31.8305 105.72 31.8005 106.11 31.3605 106.08C31.4005 106.2 31.4905 106.28 31.6605 106.28C31.4805 106.43 31.3605 106.64 30.9705 106.58C30.7605 106.63 30.7805 106.44 30.7705 106.29C30.5705 106.07 30.4805 106.78 29.9905 106.59C30.2405 106.21 30.1905 105.97 29.8905 105.71C31.8905 105.05 33.3005 103.81 34.8905 102.74C33.2905 102.95 31.7105 104.02 29.9805 104.43C31.4905 102.71 33.7004 102.24 35.9604 101.36C35.9704 101.05 36.1904 100.64 35.9604 100.38C35.5504 100.3 35.5005 100.57 35.1705 100.58C35.2805 100.04 34.8605 100.04 34.7705 99.7C34.5005 99.83 34.5805 100.23 34.6805 100.49C33.9505 100.62 33.6405 101.15 33.0105 101.38C32.8005 101.43 32.8205 101.24 32.8105 101.09C32.5205 101.23 32.1605 101.43 32.0205 100.99C31.7605 101.59 29.9405 101.84 29.5605 101.39C29.1305 101.56 28.9605 101.97 28.7805 102.38C28.1405 102.5 27.9205 102.62 27.4105 102.98C26.8605 102.82 25.8206 102.58 25.4506 103.09C25.3506 103.02 25.6005 102.46 25.6405 102.2C26.1605 102.14 26.6305 102.48 26.9205 102.1C27.0105 101.54 26.1705 101.52 26.4205 101.12C27.3705 100.98 28.5605 101.09 28.6805 100.13C28.4305 99.82 28.2105 100.38 27.8005 100.23C27.8505 99.45 29.3505 99.3 30.0605 98.85C29.9905 98.92 29.8205 99.33 30.1605 99.24C30.5505 99.33 30.2306 98.72 30.4506 98.65C30.8206 98.77 31.0105 99.08 31.5305 99.04C31.5205 98.66 31.1306 98.65 30.9406 98.45C31.0206 98.3 31.1905 98.24 31.4305 98.25C32.1005 97.03 34.2505 97.27 35.2605 96.37C33.5305 96.37 31.5705 97.02 30.2505 97.77C29.9505 97.84 30.0605 97.5 29.7605 97.58C28.5805 98.62 26.9205 98.54 25.9305 99.46C25.6505 99.21 26.2806 99.03 26.3206 98.77C25.9106 98.52 25.2006 98.58 24.9406 98.19C25.2206 97.26 27.0005 97.89 26.6105 96.71C25.9705 96.59 25.8405 97.41 25.2405 97.01C25.1605 96.57 25.7705 96.81 25.7305 96.42C25.2605 95.99 25.0005 97.02 24.5505 96.62C24.5605 97.08 23.8505 96.92 24.1605 97.41C23.6305 97.41 23.5605 97.86 23.1805 98C23.1305 97.38 23.1105 97.07 23.2705 96.53C23.1805 96.29 22.5905 96.56 22.4805 96.34C22.5105 95.1 24.2304 95.53 24.8304 94.86C24.9004 94.52 24.4305 94.74 24.5305 94.37C24.8405 94.16 25.4205 94.21 25.6105 93.88C25.2205 93.56 24.8405 94.09 24.4305 94.08C24.1005 94.08 24.0905 93.76 23.7405 93.79C23.9305 93.36 24.7706 93.58 24.8206 93C25.3806 92.84 25.9805 92.72 26.2905 92.31C43.2005 89.25 56.3805 82.49 63.2505 69.47C57.2605 78.84 46.1005 83.82 30.7805 84.24C31.0705 83.71 31.4505 83.28 31.6605 82.66C46.7305 81.79 59.0305 78.16 63.3405 66.62C60.2005 75.67 48.0005 78.09 35.8605 76.16C36.0005 75.68 36.4305 75.48 36.5405 74.98C36.7405 74.98 36.6705 75.25 36.9305 75.17C38.0005 75.06 40.5305 75.35 42.2405 75.54C44.5605 75.81 47.7505 75.6 49.9005 75.41C56.3705 74.84 62.1605 70.29 62.1405 64.65C62.1205 58.41 54.2505 59.48 51.1005 56.14C51.0105 55.39 51.2304 54.78 51.5804 54.37C54.1804 51.41 61.2905 53.53 63.9604 54.81C64.5405 53.14 65.0105 51.35 65.5105 49.6C57.4305 45.53 44.1904 48.89 43.3304 57.55C42.8804 62.12 46.3705 63.3 49.5505 64.4C51.1605 64.96 54.2805 65.64 54.3805 67.33C54.5105 69.65 50.9205 70.71 47.9105 70.5C45.1505 70.31 42.5405 69.03 40.6305 67.87C40.6905 67.54 40.9305 67.39 41.0205 67.08C40.8905 66.84 40.8605 67.5 40.5305 67.38C40.9005 67 41.2605 66.6 41.3105 65.9C42.1505 65.77 42.2405 66.41 42.7905 66.58C43.0805 66.58 43.1505 66.35 43.2805 66.18C43.2005 65.44 42.8105 65.05 43.3705 64.61C43.2305 64.22 43.0505 63.87 42.8705 63.53C40.9105 63.38 39.4205 64.21 37.7605 64.04C37.7205 63.51 37.2905 63.05 37.6605 62.67C37.0305 62.63 37.2506 63.44 37.0706 63.85C36.0106 63.62 37.4605 62.61 36.8605 61.59C37.1305 61.45 37.4505 61.66 37.8405 61.49C37.8605 60.98 37.6005 60.75 37.3405 60.51C37.3605 60.23 37.8105 60.39 37.7305 60.02C37.5505 59.82 37.1706 60.24 36.9506 60.32C36.9606 60.67 37.2305 60.76 37.2505 61.11C37.0705 61.14 36.7005 61.47 36.5605 61.21C36.2205 61.16 37.1305 60.47 36.6505 59.93C35.7705 60.42 35.5506 61.58 34.6906 62.1C34.3606 61.78 33.8106 61.67 33.7006 61.12C33.3406 61.03 33.6205 61.56 33.3105 61.52C33.0105 61.52 32.9305 61.31 32.7205 61.23C32.9305 60.97 33.4405 60.86 33.1105 60.34C33.4005 60.17 33.7905 60.11 34.2905 60.14C34.5005 60.05 34.5904 59.85 34.5804 59.55C34.5504 59.2 34.2206 59.8 34.1906 59.45C34.1606 59.19 34.3904 59.2 34.5804 59.15C34.1804 58.57 33.7605 59.37 33.5005 59.55C33.2205 59.47 33.3806 58.95 33.2006 58.76C32.9006 58.95 32.6504 59.19 32.7104 59.74C32.1304 60.18 31.7106 59.82 30.9406 59.74C31.1006 59.26 30.8905 58.88 30.5405 58.66C30.4105 58.69 30.4606 58.91 30.4406 59.05C29.8706 58.88 29.7405 58.96 29.1605 58.96C29.1105 58.25 29.8305 58.32 29.7405 57.58C30.1305 57.68 30.2005 58.1 30.5305 58.26C30.8805 58.22 31.0705 58.01 31.2205 57.77C30.6705 57.86 30.3905 57.68 30.2405 57.38C30.2005 57.11 30.7805 57.46 30.7305 57.18C30.4505 56.97 29.9806 56.95 29.9406 56.5C30.3206 56.45 30.4206 56.67 30.8206 56.59C30.3706 56.13 29.6705 55.91 29.0505 55.61C29.2705 55.31 29.9704 55.28 30.3304 55.41C30.6104 55.29 29.9005 55.13 30.2305 54.92C30.7705 55.23 31.8305 55.02 31.8105 55.9C32.5405 55.83 31.9905 55.47 32.3005 55.21C31.8205 55.07 31.3505 54.92 31.4105 54.23C32.0405 54.03 32.7205 54.45 33.1805 54.71C33.4705 54.64 33.6005 54.41 33.7705 54.22C34.5805 54.42 35.7005 55.62 36.5205 54.6C35.2405 54.62 34.1705 54.07 33.3705 53.34C33.2705 53.04 33.5905 53.16 33.7605 53.14C33.2005 52.59 33.8005 51.99 33.8505 51.37C33.8505 51.31 33.6105 51.05 33.6505 50.98C34.0105 50.28 35.2005 50.07 36.0105 50.58C36.9205 50.05 38.3205 50.93 38.8605 50.08C38.7705 49.65 38.3505 50.13 38.1705 49.89C37.9705 49.56 38.4806 49.48 38.0706 49.2C38.3506 48.77 38.5605 48.87 38.8505 48.51C38.9505 48.21 38.6304 48.34 38.4604 48.31C38.5504 48.01 38.9406 48 38.9506 47.62C38.2506 48.02 37.4005 47.28 36.9905 47.73C36.8205 47.71 36.7705 47.56 36.7905 47.34C36.4005 47.44 36.3405 47.8 36.1005 47.34C35.4505 47.85 34.6105 48.61 33.7405 47.94C33.7405 47.1 34.3005 46.99 34.2205 46.27C34.5205 46.14 34.7506 45.95 35.2006 45.97C35.0806 46.36 35.4705 46.22 35.5905 46.36C35.5605 46.59 35.4405 46.73 35.4905 47.05C36.4305 46.85 35.6405 45.44 35.0905 45.48C34.9505 45.08 35.3005 45.17 35.2805 44.89C34.9305 44.47 34.2305 44.15 34.5905 43.32C34.9005 43.27 34.9705 43.53 35.1805 43.32C35.3305 42.97 34.8505 43.26 34.8805 43.03C35.0305 42.5 35.7705 42.55 35.7605 41.85C34.6505 41.92 34.9105 43.36 33.6005 43.23C33.8005 43.02 33.9305 42.33 33.6005 42.15C33.8805 41.94 34.6204 42.19 34.5804 41.66C34.5904 41.35 34.1805 41.47 34.0905 41.27C34.1205 41.07 34.3505 41.07 34.4805 40.97C34.3405 40.74 34.0705 40.66 33.8905 40.48C34.0205 40.28 34.4405 40.37 34.4805 40.08C34.0405 39.99 33.8505 39.67 33.7905 39.2C33.4405 39.14 33.3205 39.32 33.1005 39.4C33.1305 39.7 33.4105 39.75 33.3005 40.19C32.6705 39.88 32.8406 40.63 32.3206 40.68C32.4506 40.84 32.5805 41.01 32.5205 41.37C32.4005 41.48 32.3405 41.65 32.0305 41.57C31.9505 41.95 32.2405 41.95 32.4305 42.06C32.2805 42.55 31.7105 42.51 31.5505 42.06C31.7905 41.06 31.9605 39.99 32.6205 39.4C32.7805 39.01 32.2005 39.37 32.2305 39.11C32.7205 38.52 32.9606 37.68 33.7006 37.34C33.8306 37.93 34.5905 37.89 34.4905 38.71C34.6905 38.93 34.8105 38.19 35.1805 38.51C35.1505 38.97 34.8105 39.12 34.5005 39.3C34.1405 39.37 34.2505 38.96 34.1105 38.81C33.5805 39.18 34.2705 39.76 34.8005 39.69C35.2205 39.66 35.1805 39.07 35.6805 39.39C35.7405 38.9 35.4205 38.79 35.4805 38.31C36.2905 37.85 36.6606 39.02 37.4506 38.6C37.0706 38.49 36.7205 38.35 36.5605 38.01C36.5805 37.87 36.8505 37.98 36.8505 37.81C36.7605 37.44 36.4505 37.74 36.1605 37.71C36.0405 37.56 36.0405 37.31 35.8605 37.22C36.1605 36.93 36.4406 36.62 36.9406 36.53C38.2406 37.53 40.1705 37.21 41.8605 37.69C41.9005 37.88 42.1405 37.87 42.0605 38.18C42.3305 37.93 42.8205 37.89 42.8405 37.39C43.3005 37.55 43.5205 37.96 44.2205 37.88C44.2105 38.23 43.8605 38.24 43.9305 38.67C44.2005 39.03 44.4705 38.25 44.7205 38.57C44.7005 38.97 44.4205 39.13 44.4305 39.55C44.5205 39.82 44.7705 39.37 44.9205 39.65C44.8805 40.25 45.1105 40.54 44.9205 41.03C45.0205 41.22 45.3105 40.77 45.4105 40.63C45.5805 40.65 45.6305 40.8 45.6105 41.02C46.3005 40.54 46.6204 39.71 46.5804 38.76C47.9104 38.96 49.0605 39.35 49.7305 40.22C50.2105 40.23 50.4504 40.02 50.7104 39.82C51.0805 40.35 51.7505 39.84 52.2805 40.01C52.4105 40.7 52.9006 41.03 53.0706 41.68C53.4406 41.41 53.7105 41.55 54.2505 41.58C53.7005 40.96 53.3405 40.74 52.7705 40.21C52.8005 40.08 52.9405 40.05 52.9705 39.91C53.1705 39.7 54.1806 40.32 54.9406 40.2C54.9706 39.25 53.6805 39.63 53.5605 38.83C53.9505 38.9 54.1006 39.21 54.4506 39.32C54.5306 39.21 54.5805 39.06 54.5505 38.83C54.2305 38.62 53.7605 38.58 53.4705 38.34C53.1205 38.48 52.8705 38.72 52.4905 38.84C52.6305 38.31 52.2206 38.32 52.1906 37.96C52.9006 37.81 53.2704 37.67 53.9604 37.36C53.9804 37.07 53.7405 37.06 53.7605 36.77C54.2505 36.83 54.3505 36.51 54.5405 36.28C54.7405 36.34 54.5706 36.78 54.9406 36.67C55.2506 36.72 55.2005 36.4 55.4305 36.37C55.4305 36.04 55.1105 36.04 55.1305 35.68C55.2605 35.58 55.5005 35.59 55.5205 35.38C55.7205 35.4 55.5505 35.81 55.7205 35.87C56.1605 35.51 57.2005 35.27 57.8805 35.47C58.2105 35.31 58.0705 34.68 58.3705 34.49C58.6705 34.48 58.6505 34.8 59.0605 34.68C58.9505 34.16 58.2905 34.2 58.3705 33.5C58.7005 33.21 59.2505 33.13 59.1505 32.42C59.6305 32.33 60.0404 31.91 59.8304 31.43C60.0604 31.46 60.0106 31.77 60.3206 31.72C60.6706 31.65 60.4205 30.97 60.6105 30.74C60.2405 30.7 60.1605 30.95 60.0205 31.14C59.7905 31.11 60.1305 30.88 60.1205 30.75C59.2805 30.86 58.8705 31.4 58.0605 31.54C58.1005 31.06 58.4905 30.92 58.5505 30.46C57.5605 30.56 56.8805 31.8 55.8105 32.14C55.8805 31.39 57.0504 31.74 57.0804 30.96C56.4104 30.53 56.1505 31.11 55.5105 31.26C55.5105 31.03 55.6805 30.97 55.6105 30.67C55.0105 30.88 54.4005 31.19 53.7405 31.07C53.7305 30.76 53.5206 30.63 53.4406 30.38C52.9806 30.36 53.5705 30.76 53.1505 30.77C52.5105 30.37 52.1105 29.72 51.2805 29.5C51.5305 29.09 51.3705 29.08 51.2805 28.62C51.6305 28.68 51.9405 28.78 52.2605 28.62C52.2205 28.43 51.8804 28.54 51.9604 28.23C52.2204 27.93 52.8305 27.99 52.6405 27.24C53.8905 26.53 54.9504 27.15 56.0804 27.52C55.9304 27.14 55.5006 27.05 55.1906 26.84C55.8106 26.38 55.9305 27.28 56.3705 27.33C56.5005 26.61 55.5005 26.17 54.8905 25.86C55.1305 25.68 55.7405 25.86 55.6705 25.37C56.1505 25.67 56.4106 25.46 56.9506 25.37C57.2706 25.35 57.1905 25.72 57.3505 25.86C58.3805 25.91 58.8705 25.41 59.4105 24.97C58.7305 25.05 58.4805 25.55 57.7405 25.57C57.7805 25.2 57.2905 25.07 57.5405 24.78C57.9305 24.72 58.1104 24.86 58.3304 24.97C58.2604 24.7 58.5205 24.77 58.5305 24.58C58.4105 24.41 57.9605 24.56 58.1305 24.09C57.8705 24.19 57.7205 24.4 57.5405 24.58C57.2405 24.38 57.0705 24.07 56.5505 24.09C56.6705 23.81 56.6705 23.48 56.5505 23.21C57.0805 23.39 57.2304 23.35 57.8304 23.4C57.4804 22.94 56.6905 22.47 56.8405 21.83C57.0905 21.56 57.1405 21.95 57.4305 21.93C57.3205 21.61 57.7305 21.32 57.4305 21.14C57.6205 20.89 58.0905 21.19 58.3105 21.23C58.3105 21.46 58.3105 21.69 58.3105 21.92C58.6305 21.81 58.5905 20.94 59.0905 21.33C58.7705 20.94 59.0006 20.6 58.6906 20.25C59.2206 19.87 58.6905 18.43 59.2705 17.89C59.9805 17.85 60.8205 18.61 61.2405 17.98C61.4405 18.19 60.8805 18.46 60.8505 18.77C61.3805 18.74 61.6005 18.4 61.7305 17.98C62.2305 18.35 62.4605 17.48 63.0105 17.88C62.9505 17.17 63.2105 16.91 63.5905 16.6C63.8405 16.84 64.3505 16.82 64.3805 17.28C64.1305 17.52 63.2605 17.15 63.3005 17.68C63.6305 17.68 64.2004 17.7 64.5804 17.48C64.7604 17.65 65.0205 17.92 64.6805 18.07C64.8905 18.43 65.0905 17.77 65.2705 18.07C65.2405 18.43 64.9405 18.52 64.6805 18.66C64.9905 18.71 65.0705 18.99 65.2705 19.15C65.5805 18.74 65.7106 18.15 65.9506 17.67C65.8606 17.5 65.6405 17.45 65.3605 17.48C65.3305 17.09 65.3605 16.75 65.5505 16.6C66.2205 16.96 65.9805 16.21 66.6305 16.3C66.3705 16.76 66.0205 17.13 66.1505 17.97C66.7405 17.8 66.9205 18.12 67.4305 18.26C67.6705 18.75 67.5205 19.04 67.5305 19.73C68.3505 18.99 67.7405 17.75 67.7205 16.78C67.2605 16.88 67.3705 17.54 66.8405 17.57C66.3405 17.13 67.1005 16.8 67.1305 16.29C67.9605 16.71 67.9905 15.87 68.6005 15.79C68.7005 16.22 68.9005 16.54 69.1005 16.87C69.1205 17.25 68.6504 17.14 68.7104 17.56C69.2804 17.94 69.5305 18.64 69.9905 19.13C70.1305 20.54 68.6405 20.33 68.2305 21.2C68.5105 21.31 68.9005 21.06 69.3105 21.1C69.3705 21.91 68.6705 21.96 68.1305 22.19C68.2405 22.95 67.6005 22.97 67.3505 23.37C67.8205 23.44 68.0005 23.23 68.1305 22.97C68.3205 22.97 68.2005 23.29 68.4305 23.26C68.8405 22.65 69.0305 21.83 70.0005 21.78C70.0805 21.5 70.2505 21.31 70.4905 21.19C70.2005 20.99 69.7105 20.99 69.8005 20.41C70.4905 20.24 70.5105 20.74 70.7805 21C71.3205 20.72 70.5804 20.46 70.5804 20.12C70.5004 19.72 71.0505 19.93 70.9705 19.53C70.6505 18.48 69.6805 18.09 69.8805 16.78C70.1205 16.5 70.6705 16.32 70.3705 15.8C71.2905 15.85 72.2105 16.2 72.4305 15.2C72.7705 15.32 73.1705 15.38 73.2205 15.79C72.8905 15.79 72.5305 15.76 72.4305 15.99C73.0405 15.95 73.5205 16.38 74.1005 16.28C73.3905 15.45 72.6705 14.63 72.2205 13.54C72.3205 13.54 72.4205 13.54 72.5105 13.54" fill="black"/>
<path d="M31.6805 82.6001C46.7505 81.7301 59.0505 78.1001 63.3605 66.5601C60.2205 75.6101 48.0205 78.0301 35.8805 76.1001L31.6805 82.6001Z" fill="#24AA83"/>
<path d="M95.5905 40.79C81.3305 41.23 70.8805 45.44 67.0505 56.23C70.0105 48.56 77.9806 45.35 89.2206 46.22L95.5905 40.79Z" fill="#24AA83"/>
</g>
<defs>
<clipPath id="clip0_269_92">
<rect width="122" height="122" fill="white"/>
</clipPath>
</defs>
</svg>
