<svg width="122" height="122" viewBox="0 0 122 122" fill="none" xmlns="http://www.w3.org/2000/svg">
<g clip-path="url(#clip0_269_100)">
<path d="M61 122C94.6894 122 122 94.6894 122 61C122 27.3106 94.6894 0 61 0C27.3106 0 0 27.3106 0 61C0 94.6894 27.3106 122 61 122Z" fill="#FFD02C"/>
<path d="M61.05 92.42C61.05 92.42 69.8501 92.71 76.2701 86.57C82.69 80.43 79.41 74.15 77.98 72.3C76.56 70.45 61.0399 54.9 61.0399 54.9C61.0399 54.9 45.53 70.45 44.11 72.3C42.68 74.16 39.4 80.43 45.82 86.57C52.24 92.7 61.0399 92.42 61.0399 92.42M61.0399 37.73L73.9001 24.61L90.98 24.78L69.2801 46.36L85.63 63.35C85.63 63.35 99.4 75.74 86.6 88.46C77.55 97.44 61.05 97.38 61.05 97.38C61.05 97.38 44.55 97.45 35.5 88.46C22.69 75.74 36.47 63.35 36.47 63.35L52.81 46.36L31.11 24.78L48.18 24.61L61.0399 37.73Z" fill="black"/>
</g>
<defs>
<clipPath id="clip0_269_100">
<rect width="122" height="122" fill="white"/>
</clipPath>
</defs>
</svg>
