<?xml version="1.0" encoding="utf-8"?><svg version="1.1" id="Layer_1" xmlns="http://www.w3.org/2000/svg" xmlns:xlink="http://www.w3.org/1999/xlink" x="0px" y="0px" viewBox="0 0 122.34 122.88" style="enable-background:new 0 0 122.34 122.88" xml:space="preserve"><style type="text/css">.st0{fill-rule:evenodd;clip-rule:evenodd;}</style><g><path class="st0" d="M53.02,109.84V66.65H32.81V53.42l20.22,0V37.47c-7.36-2.73-12.6-9.82-12.6-18.13C40.42,8.66,49.08,0,59.76,0 c10.68,0,19.34,8.66,19.34,19.34c0,8.31-5.24,15.39-12.6,18.13v15.96h20.22v13.23l-20.22,0v43.2c11.87-1.58,23.74-7.35,35.62-17.32 L91.58,82h30.76v30.76l-11.54-11.54c-33.15,28.48-66.65,28.86-100.48,1.22L0,112.76V82h30.76l-11.8,11.8 C30.31,102.98,41.67,108.32,53.02,109.84L53.02,109.84z M59.76,7.89c6.32,0,11.45,5.13,11.45,11.45c0,6.32-5.13,11.45-11.45,11.45 c-6.32,0-11.45-5.13-11.45-11.45C48.31,13.02,53.44,7.89,59.76,7.89L59.76,7.89z"/></g></svg>