<?xml version="1.0" encoding="utf-8"?>
<svg viewBox="0 0 1000 100" xmlns="http://www.w3.org/2000/svg" xmlns:xlink="http://www.w3.org/1999/xlink">
  <defs>
    <linearGradient id="color-0-0" gradientUnits="userSpaceOnUse" x1="481.1" y1="-23.293" x2="481.1" y2="81.771" gradientTransform="matrix(1, 0, 0, 1.57542, -0.000012, -36.585982)" xlink:href="#color-0"/>
    <linearGradient id="color-0">
      <stop style="stop-color: #f12711;" offset="0"/>
      <stop style="stop-color: #f5af19;" offset="1"/>
    </linearGradient>
  </defs>
  
  <rect x="-56.84" y="-73.283" width="1075.881" height="165.52" style="stroke: rgb(0, 0, 0); fill: url('#color-0-0');" transform="matrix(0.9999999999999999, 0, -0.08318000286817549, 0.9999999999999999, 0.00717000032722126, 8.315767536037157)"/>
 
  <g transform="matrix(0.5243449807167052, 0, 0, 0.5526189804077147, -115.93118631634661, -53.523374245267306)" style="">
    <title>BOATY</title>
    <g>
      <path d="M 65.703 144.67 L 79.529 144.9 L 85.06 169.788 L 71.003 169.788 L 65.703 144.67 Z" style="stroke: rgb(0, 0, 0);"/>
      <path d="M 65.601 144.789 L 68.377 144.663 C 66.227 147.619 83.321 172.158 84.958 169.907 L 70.901 169.907 L 65.601 144.789 Z" style="fill: rgba(255, 255, 255, 0.3);"/>
    </g>
    <path d="M 54.557 163.689 L 121.335 163.689 L 127.215 198.399 L 54.557 198.968 L 54.557 163.689 Z" style="stroke: rgb(0, 0, 0); fill: rgb(243, 219, 94);"/>
    <g>
      <path d="M 206.224 204.6 L 206.224 214.197 C 206.224 238.379 194.342 257.982 179.685 257.982 L 76.075 257.982 C 61.419 257.982 49.537 238.379 49.537 214.197 L 49.537 204.6 C 49.537 203.592 49.558 202.592 49.599 201.601 L 206.162 201.601 C 206.203 202.592 206.224 203.592 206.224 204.6 Z" style="fill: rgb(216, 216, 216); stroke: rgb(0, 0, 0); opacity: 0.9;"/>
    </g>
    <path d="M 48.819 195.831 L 172.202 194.991 L 181.022 187.55 L 208.42 187.55 L 208.42 206.122 L 48.819 206.122 L 48.819 195.831 Z" style="stroke: rgb(0, 0, 0); fill: rgb(232, 143, 143);"/>
    <g transform="matrix(1, 0, 0, 1, -2.765277, 0.230436)">
      <ellipse style="stroke: rgb(0, 0, 0); fill: rgb(129, 138, 244);" cx="71.347" cy="180.04" rx="7.14" ry="7.035"/>
      <ellipse style="stroke: rgb(0, 0, 0); fill: rgb(129, 138, 244);" cx="91.506" cy="180.04" rx="7.14" ry="7.035"/>
      <ellipse style="stroke: rgb(0, 0, 0); fill: rgb(129, 138, 244);" cx="111.036" cy="180.04" rx="7.14" ry="7.035"/>
    </g>
    <path d="M 48.65 200.436 C 49.543 201.329 208.938 204.026 208.575 189.836 L 208.345 205.736 L 48.65 205.736 L 48.65 200.436 Z" style="fill: rgba(0, 0, 0, 0.282);"/>
    <path style="fill: rgba(0, 0, 0, 0.247);" d="M 49.341 206.197 L 206.501 205.736 C 208.239 208.516 203.446 241.498 202.123 239.381 C 203.918 207.399 52.052 203.486 49.341 206.197 Z"/>
    <path d="M 79.83 144.526 L 85.581 170.407 L 70.495 170.407 L 64.982 144.279 Z M 71.307 169.407 L 84.335 169.407 L 79.024 145.512 L 66.22 145.299 Z" style="fill: none;"/>
    <path style="fill: rgba(0, 0, 0, 0.133);" d="M 119.657 163.764 L 54.962 163.586 L 55.14 194.597 C 54.249 172.285 79.022 166.365 119.657 163.764 Z"/>
    <animateMotion path="M -15.848 1.761 L 81.298 -2.482 C 79.912 -6.074 180.754 -12.933 189.008 -3.908 C 176.744 12.816 285.815 -8.294 289.849 -13.796 C 290.821 -6.506 337.645 2.263 377.834 10.212 C 372.927 -2.055 512.797 0.503 513.527 2.329 C 515.092 3.894 611.86 10.392 610.295 8.827 L 691.803 -10.113 C 690.863 -2.907 782.143 19.745 806.129 -3.718 L 912.663 -2.936 C 912.039 -1.689 1043.557 -7.847 1044.486 -9.704 C 1048.43 -3.788 1192.177 -1.968 1189.968 -5.282" calcMode="spline" dur="24.11s" fill="freeze" repeatCount="indefinite" keyTimes="0; 1" keyPoints="0; 1" keySplines="0.42 0 0.58 1"/>
  </g>
  <path style="fill: rgb(43, 156, 206);" d="M -5.278 98.432 L 1012.822 96.924 L 1012.821 64.494 C 1012.821 64.494 965.836 76.661 898.024 73.789 C 871.064 72.647 840.97 57.046 807.404 59.936 C 774.596 62.76 739.334 74.661 701.829 76.371 C 677.823 77.466 647.505 66.045 622.472 66.955 C 588.211 68.201 554.353 83.162 519.35 82.942 C 488.877 82.75 456.167 66.322 426.225 65.235 C 393.499 64.047 365.836 78.984 334.797 75.925 C 305.122 73.001 276.496 69.135 249.455 64.166 C 216.378 58.087 180.462 80.127 153.258 69.564 C 114.084 54.353 77.616 60.819 49.421 67.489 C -0.995 79.416 -5.68 64.913 -6.409 60.724 L -5.278 98.432 Z" transform="matrix(0.9999999999999999, 0, 0, 0.9999999999999999, 0, 0)">
    <title>wave3</title>
  </path>
  <path style="fill: rgb(60, 167, 214);" d="M -4.492 102.31 L 1013.608 100.802 L 1013.607 68.372 C 1013.607 68.372 966.622 80.539 898.81 77.667 C 871.85 76.525 841.756 60.924 808.19 63.814 C 775.382 66.638 740.12 78.539 702.615 80.249 C 678.609 81.344 648.291 69.923 623.258 70.833 C 588.997 72.079 555.139 87.04 520.136 86.82 C 489.663 86.628 456.953 70.2 427.011 69.113 C 394.285 67.925 366.622 82.862 335.583 79.803 C 305.908 76.879 277.282 73.013 250.241 68.044 C 217.164 61.965 181.248 84.005 154.044 73.442 C 114.87 58.231 78.402 64.697 50.207 71.367 C -0.209 83.294 -4.894 68.791 -5.623 64.602 L -4.492 102.31 Z" transform="matrix(0.9999999999999999, 0, 0, 0.9999999999999999, 0, 0)">
    <animateMotion path="M 8.523 -1.967 L -4.239 1.967" calcMode="linear" begin="2.71s" dur="2.59s" fill="freeze" repeatCount="indefinite"/>
    <animateMotion path="M 0 0 L 9.528 -3.934" calcMode="spline" begin="0s" dur="2.73s" fill="freeze" repeatCount="indefinite" keyTimes="0; 1" keyPoints="0; 1" keySplines="0.42 0 0.58 1"/>
    <title>Wave2</title>
  </path>
  <path style="fill: rgb(97, 190, 231);" d="M -10.181 109.163 L 1007.919 107.655 L 1007.918 75.225 C 1007.918 75.225 960.933 87.392 893.121 84.52 C 866.161 83.378 836.067 67.777 802.501 70.667 C 769.693 73.491 734.431 85.392 696.926 87.102 C 672.92 88.197 642.602 76.776 617.569 77.686 C 583.308 78.932 549.45 93.893 514.447 93.673 C 483.974 93.481 451.264 77.053 421.322 75.966 C 388.596 74.778 360.933 89.715 329.894 86.656 C 300.219 83.732 271.593 79.866 244.552 74.897 C 211.475 68.818 175.559 90.858 148.355 80.295 C 109.181 65.084 72.713 71.55 44.518 78.22 C -5.898 90.147 -10.583 75.644 -11.312 71.455 L -10.181 109.163 Z" transform="matrix(0.9999999999999999, 0, 0, 0.9999999999999999, 0, 0)">
    <title>Wave1</title>
    <animateMotion path="M 0 0 L 9.528 -3.934" calcMode="spline" begin="0s" dur="2s" fill="freeze" repeatCount="indefinite" keyTimes="0; 1" keyPoints="0; 1" keySplines="0.42 0 0.58 1"/>
    <animateMotion path="M 8.523 -1.967 L -4.239 1.967" calcMode="linear" begin="2s" dur="2s" fill="freeze" repeatCount="indefinite"/>
  </path>
</svg>