<svg xmlns="http://www.w3.org/2000/svg" viewBox="0 0 122.88 93.7"><defs><style>.a{fill:#2b3e44;}.b{fill:#ff6d00;}.c{fill:#fff;}</style></defs><title>fish-color</title><path class="a" d="M120,7.78c-1.09,1.09-2.16,2.22-3.23,3.33l3.64-1.54a1.69,1.69,0,0,1,.27-.11A1.36,1.36,0,0,1,121,9.4h0a1.58,1.58,0,0,1,1.18.34,1.65,1.65,0,0,1,.61,1.08A26.6,26.6,0,0,1,122,20a55.89,55.89,0,0,1-4,11,80.57,80.57,0,0,1-6.5,11.11,83.48,83.48,0,0,1-8.11,10q-.43,2.64-1.06,5.14t-1.48,5a53.18,53.18,0,0,1-2,5,51.92,51.92,0,0,1-2.45,4.68h0a.94.94,0,0,1-.1.14.75.75,0,0,1-.12.14l0,0a13,13,0,0,1-2.88,2.36,5.6,5.6,0,0,1-2.71.81A4.28,4.28,0,0,1,88,74.51a6.83,6.83,0,0,1-1.94-2.23,1,1,0,0,1-.09-.15,1.11,1.11,0,0,1-.07-.16v0c-.39-1-.75-2-1.1-3.1s-.67-2.11-1-3.16c-.23-.82-.45-1.66-.65-2.51s-.33-1.43-.47-2.13a54.69,54.69,0,0,1-13.1,2,99.87,99.87,0,0,1-11.42-.42h0A74.72,74.72,0,0,0,45.9,62.4a7.42,7.42,0,0,0-2.39.58,6.39,6.39,0,0,0-1.92,1.28A8.32,8.32,0,0,0,40,66.37a13.76,13.76,0,0,0-1.14,2.95c-1.67,4.94-3.17,10.08-4.74,15.07a29.3,29.3,0,0,1-1.89,4.71,11.81,11.81,0,0,1-2.21,3.11,5.78,5.78,0,0,1-1.63,1.13,4.17,4.17,0,0,1-1.76.36,4.12,4.12,0,0,1-1.76-.44h0a5.71,5.71,0,0,1-1.58-1.19,12.52,12.52,0,0,1-2.17-3.34,31.5,31.5,0,0,1-1.81-5c-.3-1.08-.58-2.12-.83-3.12s-.51-2-.75-3.11-.42-1.92-.6-2.85-.33-1.75-.47-2.64c-1.64-1.19-3.25-2.39-4.8-3.6s-3.1-2.51-4.52-3.82a38.19,38.19,0,0,1-4-4.23A22.1,22.1,0,0,1,.51,55.79l-.06-.14a.53.53,0,0,1,0-.15,6.14,6.14,0,0,1,.15-4.81,5.29,5.29,0,0,1,3.33-2.38,18.27,18.27,0,0,1,7.06-.19c2.52.32,5,.88,6.84,1.29l.85.19.79.17L27.6,51.4a19,19,0,0,0,4.65,0A11.14,11.14,0,0,0,36,50.21a9.48,9.48,0,0,0,2.86-2.41A13.27,13.27,0,0,0,40.94,44l0-.1.05-.12c.79-1.56,1.61-3.13,2.46-4.73s1.69-3.15,2.58-4.76c.79-1.43,1.59-2.85,2.4-4.24s1.55-2.64,2.35-3.94a63.09,63.09,0,0,1-5.18-5.85c-1.75-2.32-3.13-4.78-3.22-6.92a4.47,4.47,0,0,1,1.78-4c1.28-1,3.34-1.61,6.4-1.75,1.48-.06,2.95-.1,4.42-.1s2.94,0,4.38.17,2.76.27,4.14.5a38,38,0,0,1,4,.88,47.49,47.49,0,0,1,12.32-5.8A69.36,69.36,0,0,1,95.13.21a50.33,50.33,0,0,1,14.19.67,26.05,26.05,0,0,1,10.49,4.44l.17.15a1.62,1.62,0,0,1,.47,1.12A1.73,1.73,0,0,1,120,7.78Z"/><path class="b" d="M79.36,6.88a48.88,48.88,0,0,0-5.69,2.38,33.1,33.1,0,0,0-4.89,2.93,1.67,1.67,0,0,1-.69.29,1.73,1.73,0,0,1-.75-.05h0a37.57,37.57,0,0,0-4.08-.95c-1.37-.24-2.74-.4-4.11-.51s-2.81-.16-4.2-.16-2.81,0-4.23.09h0a9.52,9.52,0,0,0-4.11.85,1.66,1.66,0,0,0-1,1.54c.14,3.14,5.19,8.3,8,11.15l.37.38a1.68,1.68,0,0,1,.46,1,1.63,1.63,0,0,1-.27,1.05c-.9,1.45-1.79,2.95-2.69,4.49s-1.77,3.07-2.61,4.58-1.66,3-2.49,4.6-1.63,3.11-2.45,4.72A16.57,16.57,0,0,1,41.31,50a12.54,12.54,0,0,1-3.77,3.13,14,14,0,0,1-4.76,1.54,21.58,21.58,0,0,1-5.63,0c-2.73-.43-5.63-1.11-8.36-1.66l-.74-.16-1-.22c-1.71-.38-4-.9-6.29-1.21a15.62,15.62,0,0,0-6,.06,2,2,0,0,0-1.3,1,2.92,2.92,0,0,0,0,2.13A19.54,19.54,0,0,0,6,58.42a36,36,0,0,0,3.59,3.79c1.38,1.28,2.91,2.54,4.52,3.8s3.31,2.5,5.05,3.76a1.6,1.6,0,0,1,.43.47,1.47,1.47,0,0,1,.21.56v.06c.15,1,.32,2,.51,3s.4,2,.62,3,.47,2,.73,3,.54,2.07.81,3A29.16,29.16,0,0,0,24,87.21a9.57,9.57,0,0,0,1.66,2.64,2.83,2.83,0,0,0,.62.5,1,1,0,0,0,.48.15,1,1,0,0,0,.47-.13,2.81,2.81,0,0,0,.62-.46,9.17,9.17,0,0,0,1.67-2.43,25.89,25.89,0,0,0,1.58-4l4.7-15a16.68,16.68,0,0,1,1.46-3.72A11.51,11.51,0,0,1,39.35,62,9.79,9.79,0,0,1,42.19,60a10.66,10.66,0,0,1,3.44-.85,77.23,77.23,0,0,1,12.76.26h0a93.14,93.14,0,0,0,11.5.39,52.57,52.57,0,0,0,13.56-2.39,1.62,1.62,0,0,1,1.23.11,1.57,1.57,0,0,1,.84,1.18c.18,1,.38,2,.61,3s.49,2,.77,3,.59,2,.91,3,.67,1.94,1,2.92a3.72,3.72,0,0,0,.84,1,1.28,1.28,0,0,0,.8.32,2.67,2.67,0,0,0,1.33-.48A10.15,10.15,0,0,0,93.67,70a47,47,0,0,0,2.23-4.29,48.74,48.74,0,0,0,1.83-4.59q.84-2.41,1.45-4.94t1-5.17a1.84,1.84,0,0,1,.15-.47,1.37,1.37,0,0,1,.26-.37l0,0c1.49-1.54,2.92-3.16,4.28-4.83s2.52-3.21,3.68-4.87a45.28,45.28,0,0,1-10.94-4.61,36.35,36.35,0,0,1-8.79-7.27,37.38,37.38,0,0,1-6.17-9.85A49.92,49.92,0,0,1,79.36,6.88Z"/><path class="b" d="M108.89,14.56l7.42-7.65a25.53,25.53,0,0,0-8.74-3,48.67,48.67,0,0,0-12.2-.4,62.32,62.32,0,0,0-6.66.91c-2.13.4-4.23.91-6.26,1.5A47.15,47.15,0,0,0,85.6,17.23a34.39,34.39,0,0,0,5.72,9.2,32.73,32.73,0,0,0,8.37,6.83,42.93,42.93,0,0,0,10.83,4.34q1.24-2,2.35-3.91c.78-1.4,1.51-2.78,2.16-4.15a55.15,55.15,0,0,0,3.47-9.07,28.69,28.69,0,0,0,1.12-7.08l-9,3.8a1.64,1.64,0,0,1-1.23,0,1.66,1.66,0,0,1-.88-.87,1.55,1.55,0,0,1-.1-.92,1.69,1.69,0,0,1,.4-.8l0,0Z"/><path d="M100.47,6.27l-.07,0a5.46,5.46,0,0,0-2.12-.13,5.57,5.57,0,0,0-2,.69,5.74,5.74,0,0,0-1.62,1.41,5.52,5.52,0,0,0-1,1.91l0,.06a5.51,5.51,0,0,0-.13,2.13,5.77,5.77,0,0,0,.69,2A5.5,5.5,0,0,0,95.65,16a5.51,5.51,0,0,0,4.07,1.09,5.56,5.56,0,0,0,2-.69l0,0a5.34,5.34,0,0,0,1.57-1.39,5.48,5.48,0,0,0,.95-1.92l0-.06a5.46,5.46,0,0,0,.13-2.12,5.7,5.7,0,0,0-.69-2,5.57,5.57,0,0,0-1.41-1.61,5.46,5.46,0,0,0-1.9-.94Z"/><path class="c" d="M100.61,5.53l.07,0a6.2,6.2,0,0,1,2.15,1.07,6.26,6.26,0,0,1,2.38,4.12,6.17,6.17,0,0,1-.14,2.41l0,.07A6.19,6.19,0,0,1,104,15.4a6.36,6.36,0,0,1-1.83,1.6l0,0a6.26,6.26,0,0,1-6.91-.47,6.17,6.17,0,0,1-1.61-1.84,6.35,6.35,0,0,1-.78-2.29A6.17,6.17,0,0,1,93,10l0-.09a6.23,6.23,0,0,1,2.9-3.75,6.35,6.35,0,0,1,2.29-.78,6.17,6.17,0,0,1,2.41.14Z"/><path class="a" d="M100,7.93h0a3.79,3.79,0,0,1,1.32.65,3.55,3.55,0,0,1,1,1.11,3.78,3.78,0,0,1,.39,2.81l0,.07a3.76,3.76,0,0,1-.64,1.3,3.72,3.72,0,0,1-1.07.95l0,0a3.76,3.76,0,0,1-1.39.47,3.87,3.87,0,0,1-1.47-.1,3.79,3.79,0,0,1-1.32-.65,4,4,0,0,1-1-1.08v0a3.8,3.8,0,0,1-.39-2.82l0-.07a3.76,3.76,0,0,1,1.74-2.27A3.8,3.8,0,0,1,100,7.92Z"/></svg>