<svg xmlns="http://www.w3.org/2000/svg" viewBox="0 -0.9844 0.315 2.025">
	<path d="m-0-.9844v.0127c0 .0127 0 .0374 0 .0619 0 .0253 0 .0505 0 .0759 0 .0239 0 .0495 0 .0745 0 .0253 0 .0501 0 .0745 0 .0253 0 .0505 0 .0759 0 .0239 0 .0495 0 .0745 0 .0253 0 .0501 0 .0745 0 .0253 0 .0505 0 .0759 0 .0239 0 .0495 0 .0745 0 .0253 0 .0501 0 .0745 0 .0253 0 .0505 0 .0759C-0-.135-0-.1094-0-.0844c0 .0253 0 .0501 0 .0745 0 .0253 0 .0505 0 .0759C0 .09 0 .1156 0 .1406c0 .0253 0 .0501 0 .0745 0 .0253 0 .0505 0 .0759 0 .0239 0 .0495 0 .0745 0 .0253 0 .0501 0 .0745 0 .0253 0 .0505 0 .0759 0 .0239 0 .0495 0 .0745 0 .0253 0 .0501 0 .0745 0 .0253 0 .0505 0 .0759 0 .0239 0 .0495 0 .0745 0 .0253 0 .0501 0 .0745 0 .0253 0 .0505 0 .0759 0 .0239 0 .0495 0 .062V1.0406h.045l.0225-.0127c.0225-.0127.0675-.0374.0675-.0619-0-.0253-.045-.0505-.03-.0759C.1195.8662.1955.8407.225.8156c.0295-.0253.0155-.0501-.015-.0745-.03-.0253-.075-.0505-.09-.0759-.0145-.0239-.0004-.0495.0225-.0745.0221-.0253.053-.0501.0751-.0745.0229-.0253.037-.0505.0525-.0759.0155-.0239.0295-.0495.015-.0745-.015-.0253-.06-.0501-.0675-.0745-.008-.0253.0229-.0505-.0076-.0759C.18.1913.09.1657.0675.1406c-.0225-.0253.0225-.0501.09-.0745.0675-.0253.1575-.0505.1575-.0759-0-.0239-.09-.0495-.15-.0745C.1055-.1097.0745-.1344.1125-.1589c.038-.0253.142-.0505.1425-.0759-.0004-.0239-.1045-.0495-.1049-.0745.0004-.0253.1045-.0501.12-.0745.0155-.0253-.0605-.0505-.0975-.0759C.135-.4838.135-.5093.18-.5344c.045-.0253.135-.0501.1275-.0745-.008-.0253-.1121-.0505-.1575-.0759C.1055-.7087.1195-.7343.1125-.7594c-.007-.0253-.038-.0501-.0525-.0745-.015-.0253-.015-.0505-.015-.0759-0-.0239-0-.0495-0-.062V-.9844z" fill="#000000"/>
</svg>