<?xml version="1.0" standalone="no"?>
<svg xmlns:xlink="http://www.w3.org/1999/xlink" id="wave" style="transform:rotate(0deg); transition: 0.3s" viewBox="0 0 1440 490" version="1.1" xmlns="http://www.w3.org/2000/svg"><defs><linearGradient id="sw-gradient-0" x1="0" x2="0" y1="1" y2="0"><stop stop-color="rgba(62, 76.414, 243, 1)" offset="0%"/><stop stop-color="rgba(11, 220.557, 255, 1)" offset="100%"/></linearGradient></defs><path style="transform:translate(0, 0px); opacity:1" fill="url(#sw-gradient-0)" d="M0,441L17.1,441C34.3,441,69,441,103,432.8C137.1,425,171,408,206,383.8C240,359,274,327,309,310.3C342.9,294,377,294,411,318.5C445.7,343,480,392,514,392C548.6,392,583,343,617,326.7C651.4,310,686,327,720,277.7C754.3,229,789,114,823,73.5C857.1,33,891,65,926,106.2C960,147,994,196,1029,245C1062.9,294,1097,343,1131,318.5C1165.7,294,1200,196,1234,163.3C1268.6,131,1303,163,1337,179.7C1371.4,196,1406,196,1440,212.3C1474.3,229,1509,261,1543,261.3C1577.1,261,1611,229,1646,187.8C1680,147,1714,98,1749,130.7C1782.9,163,1817,278,1851,318.5C1885.7,359,1920,327,1954,302.2C1988.6,278,2023,261,2057,220.5C2091.4,180,2126,114,2160,89.8C2194.3,65,2229,82,2263,106.2C2297.1,131,2331,163,2366,147C2400,131,2434,65,2451,32.7L2468.6,0L2468.6,490L2451.4,490C2434.3,490,2400,490,2366,490C2331.4,490,2297,490,2263,490C2228.6,490,2194,490,2160,490C2125.7,490,2091,490,2057,490C2022.9,490,1989,490,1954,490C1920,490,1886,490,1851,490C1817.1,490,1783,490,1749,490C1714.3,490,1680,490,1646,490C1611.4,490,1577,490,1543,490C1508.6,490,1474,490,1440,490C1405.7,490,1371,490,1337,490C1302.9,490,1269,490,1234,490C1200,490,1166,490,1131,490C1097.1,490,1063,490,1029,490C994.3,490,960,490,926,490C891.4,490,857,490,823,490C788.6,490,754,490,720,490C685.7,490,651,490,617,490C582.9,490,549,490,514,490C480,490,446,490,411,490C377.1,490,343,490,309,490C274.3,490,240,490,206,490C171.4,490,137,490,103,490C68.6,490,34,490,17,490L0,490Z"/><defs><linearGradient id="sw-gradient-1" x1="0" x2="0" y1="1" y2="0"><stop stop-color="rgba(62, 243, 237.89, 1)" offset="0%"/><stop stop-color="rgba(16.367, 11, 255, 1)" offset="100%"/></linearGradient></defs><path style="transform:translate(0, 50px); opacity:0.9" fill="url(#sw-gradient-1)" d="M0,343L17.1,343C34.3,343,69,343,103,359.3C137.1,376,171,408,206,424.7C240,441,274,441,309,367.5C342.9,294,377,147,411,106.2C445.7,65,480,131,514,204.2C548.6,278,583,359,617,392C651.4,425,686,408,720,343C754.3,278,789,163,823,114.3C857.1,65,891,82,926,130.7C960,180,994,261,1029,253.2C1062.9,245,1097,147,1131,106.2C1165.7,65,1200,82,1234,98C1268.6,114,1303,131,1337,147C1371.4,163,1406,180,1440,179.7C1474.3,180,1509,163,1543,204.2C1577.1,245,1611,343,1646,326.7C1680,310,1714,180,1749,179.7C1782.9,180,1817,310,1851,351.2C1885.7,392,1920,343,1954,310.3C1988.6,278,2023,261,2057,269.5C2091.4,278,2126,310,2160,310.3C2194.3,310,2229,278,2263,269.5C2297.1,261,2331,278,2366,236.8C2400,196,2434,98,2451,49L2468.6,0L2468.6,490L2451.4,490C2434.3,490,2400,490,2366,490C2331.4,490,2297,490,2263,490C2228.6,490,2194,490,2160,490C2125.7,490,2091,490,2057,490C2022.9,490,1989,490,1954,490C1920,490,1886,490,1851,490C1817.1,490,1783,490,1749,490C1714.3,490,1680,490,1646,490C1611.4,490,1577,490,1543,490C1508.6,490,1474,490,1440,490C1405.7,490,1371,490,1337,490C1302.9,490,1269,490,1234,490C1200,490,1166,490,1131,490C1097.1,490,1063,490,1029,490C994.3,490,960,490,926,490C891.4,490,857,490,823,490C788.6,490,754,490,720,490C685.7,490,651,490,617,490C582.9,490,549,490,514,490C480,490,446,490,411,490C377.1,490,343,490,309,490C274.3,490,240,490,206,490C171.4,490,137,490,103,490C68.6,490,34,490,17,490L0,490Z"/><defs><linearGradient id="sw-gradient-2" x1="0" x2="0" y1="1" y2="0"><stop stop-color="rgba(62, 229.714, 243, 1)" offset="0%"/><stop stop-color="rgba(11, 13.899, 255, 1)" offset="100%"/></linearGradient></defs><path style="transform:translate(0, 100px); opacity:0.8" fill="url(#sw-gradient-2)" d="M0,49L17.1,40.8C34.3,33,69,16,103,81.7C137.1,147,171,294,206,318.5C240,343,274,245,309,245C342.9,245,377,343,411,375.7C445.7,408,480,376,514,334.8C548.6,294,583,245,617,261.3C651.4,278,686,359,720,375.7C754.3,392,789,343,823,343C857.1,343,891,392,926,375.7C960,359,994,278,1029,204.2C1062.9,131,1097,65,1131,49C1165.7,33,1200,65,1234,98C1268.6,131,1303,163,1337,187.8C1371.4,212,1406,229,1440,253.2C1474.3,278,1509,310,1543,343C1577.1,376,1611,408,1646,392C1680,376,1714,310,1749,285.8C1782.9,261,1817,278,1851,285.8C1885.7,294,1920,294,1954,253.2C1988.6,212,2023,131,2057,81.7C2091.4,33,2126,16,2160,24.5C2194.3,33,2229,65,2263,98C2297.1,131,2331,163,2366,179.7C2400,196,2434,196,2451,196L2468.6,196L2468.6,490L2451.4,490C2434.3,490,2400,490,2366,490C2331.4,490,2297,490,2263,490C2228.6,490,2194,490,2160,490C2125.7,490,2091,490,2057,490C2022.9,490,1989,490,1954,490C1920,490,1886,490,1851,490C1817.1,490,1783,490,1749,490C1714.3,490,1680,490,1646,490C1611.4,490,1577,490,1543,490C1508.6,490,1474,490,1440,490C1405.7,490,1371,490,1337,490C1302.9,490,1269,490,1234,490C1200,490,1166,490,1131,490C1097.1,490,1063,490,1029,490C994.3,490,960,490,926,490C891.4,490,857,490,823,490C788.6,490,754,490,720,490C685.7,490,651,490,617,490C582.9,490,549,490,514,490C480,490,446,490,411,490C377.1,490,343,490,309,490C274.3,490,240,490,206,490C171.4,490,137,490,103,490C68.6,490,34,490,17,490L0,490Z"/></svg>