<?xml version="1.0" standalone="no"?><svg xmlns="http://www.w3.org/2000/svg" viewBox="0 0 1440 320"><path fill="#0099ff" fill-opacity="1" d="M0,288L8.9,288C17.8,288,36,288,53,288C71.1,288,89,288,107,277.3C124.4,267,142,245,160,240C177.8,235,196,245,213,213.3C231.1,181,249,107,267,101.3C284.4,96,302,160,320,192C337.8,224,356,224,373,197.3C391.1,171,409,117,427,128C444.4,139,462,213,480,213.3C497.8,213,516,139,533,138.7C551.1,139,569,213,587,240C604.4,267,622,245,640,202.7C657.8,160,676,96,693,96C711.1,96,729,160,747,208C764.4,256,782,288,800,272C817.8,256,836,192,853,170.7C871.1,149,889,171,907,165.3C924.4,160,942,128,960,117.3C977.8,107,996,117,1013,128C1031.1,139,1049,149,1067,165.3C1084.4,181,1102,203,1120,218.7C1137.8,235,1156,245,1173,234.7C1191.1,224,1209,192,1227,170.7C1244.4,149,1262,139,1280,160C1297.8,181,1316,235,1333,245.3C1351.1,256,1369,224,1387,224C1404.4,224,1422,256,1431,272L1440,288L1440,320L1431.1,320C1422.2,320,1404,320,1387,320C1368.9,320,1351,320,1333,320C1315.6,320,1298,320,1280,320C1262.2,320,1244,320,1227,320C1208.9,320,1191,320,1173,320C1155.6,320,1138,320,1120,320C1102.2,320,1084,320,1067,320C1048.9,320,1031,320,1013,320C995.6,320,978,320,960,320C942.2,320,924,320,907,320C888.9,320,871,320,853,320C835.6,320,818,320,800,320C782.2,320,764,320,747,320C728.9,320,711,320,693,320C675.6,320,658,320,640,320C622.2,320,604,320,587,320C568.9,320,551,320,533,320C515.6,320,498,320,480,320C462.2,320,444,320,427,320C408.9,320,391,320,373,320C355.6,320,338,320,320,320C302.2,320,284,320,267,320C248.9,320,231,320,213,320C195.6,320,178,320,160,320C142.2,320,124,320,107,320C88.9,320,71,320,53,320C35.6,320,18,320,9,320L0,320Z"></path></svg>