<svg xmlns="http://www.w3.org/2000/svg" viewBox="-0.9844 -0.315 2.025 0.315">
	<path d="m-.9844 0h.0127c.0127 0 .0374 0 .0619 0 .0253 0 .0505 0 .0759 0 .0239 0 .0495 0 .0745 0 .0253 0 .0501 0 .0745 0 .0253 0 .0505 0 .0759 0 .0239 0 .0495 0 .0745 0 .0253 0 .0501 0 .0745 0 .0253 0 .0505 0 .0759 0 .0239 0 .0495 0 .0745 0 .0253 0 .0501 0 .0745 0 .0253 0 .0505 0 .0759 0C-.135 0-.1094 0-.0844 0c.0253 0 .0501 0 .0745 0 .0253 0 .0505 0 .0759 0C.09 0 .1156 0 .1406 0c.0253 0 .0501 0 .0745 0 .0253 0 .0505 0 .0759 0 .0239 0 .0495 0 .0745 0 .0253 0 .0501 0 .0745 0 .0253 0 .0505 0 .0759 0 .0239 0 .0495 0 .0745 0 .0253 0 .0501 0 .0745 0 .0253 0 .0505 0 .0759 0 .0239 0 .0495 0 .0745 0 .0253 0 .0501 0 .0745 0 .0253 0 .0505 0 .0759 0 .0239 0 .0495 0 .062 0H1.0406v-.045l-.0127-.0225c-.0127-.0225-.0374-.0675-.0619-.0675-.0253 0-.0505.045-.0759.03C.8662-.1195.8407-.1955.8156-.225c-.0253-.0295-.0501-.0155-.0745.015-.0253.03-.0505.075-.0759.09-.0239.0145-.0495.0004-.0745-.0225-.0253-.0221-.0501-.053-.0745-.0751-.0253-.0229-.0505-.037-.0759-.0525-.0239-.0155-.0495-.0295-.0745-.015-.0253.015-.0501.06-.0745.0675-.0253.008-.0505-.0229-.0759.0076C.1913-.18.1657-.09.1406-.0675c-.0253.0225-.0501-.0225-.0745-.09-.0253-.0675-.0505-.1575-.0759-.1575-.0239 0-.0495.09-.0745.15C-.1097-.1055-.1344-.0745-.1589-.1125c-.0253-.038-.0505-.142-.0759-.1425-.0239.0004-.0495.1045-.0745.1049-.0253-.0004-.0501-.1045-.0745-.12-.0253-.0155-.0505.0605-.0759.0975C-.4838-.135-.5093-.135-.5344-.18c-.0253-.045-.0501-.135-.0745-.1275-.0253.008-.0505.1121-.0759.1575C-.7087-.1055-.7343-.1195-.7594-.1125c-.0253.007-.0501.038-.0745.0525-.0253.015-.0505.015-.0759.015-.0239 0-.0495 0-.062 0H-.9844z" fill="#000000"/>
</svg>